<svg id="Layer_1" data-name="Layer 1" xmlns="http://www.w3.org/2000/svg" viewBox="0 0 224.32 323.69"><defs><style>.cls-1{fill:#0f0d0e;}.cls-2{fill:#90553a;}.cls-3{fill:#c0aba2;}.cls-4{fill:#9a6242;}.cls-5{fill:#cdc9c8;}.cls-6{fill:#af7353;}.cls-7{fill:#ab8c7a;}.cls-8{fill:#a1725f;}.cls-9{fill:#974c26;}.cls-10{fill:#161213;}.cls-11{fill:#b2a5a3;}.cls-12{fill:#ccc5c6;}.cls-13{fill:#73503e;}.cls-14{fill:#bdb4b9;}.cls-15{fill:#926245;}.cls-16{fill:#322422;}.cls-17{fill:#f3f3f3;}.cls-18{fill:#2a1f20;}.cls-19{fill:#161314;}.cls-20{fill:#211a19;}.cls-21{fill:#e2e2e6;}.cls-22{fill:#1e1617;}.cls-23{fill:#bdb4b3;}.cls-24{fill:#392b28;}.cls-25{fill:#dca491;}.cls-26{fill:#e7e6e8;}.cls-27{fill:#211b1b;}.cls-28{fill:#281d1c;}.cls-29{fill:#ce8b6d;}.cls-30{fill:#cbbfc2;}.cls-31{fill:#715f56;}.cls-32{fill:#e2ac8f;}.cls-33{fill:#dbcaca;}.cls-34{fill:#d5bfb3;}.cls-35{fill:#d9997c;}.cls-36{fill:#edaf91;}.cls-37{fill:#bd7756;}.cls-38{fill:#5a392b;}.cls-39{fill:#ddaf92;}.cls-40{fill:#a6655d;}.cls-41{fill:#bd6b50;}.cls-42{fill:#171213;}.cls-43{fill:#1b1414;}.cls-44{fill:#141112;}.cls-45{fill:#b77b5a;}.cls-46{fill:#ba8362;}.cls-47{fill:#9c5a3d;}.cls-48{fill:#87492a;}.cls-49{fill:#ccc1bf;}.cls-50{fill:#6f3521;}.cls-51{fill:#673324;}.cls-52{fill:#97512f;}.cls-53{fill:#6a3421;}.cls-54{fill:#8e4d2f;}.cls-55{fill:#925340;}.cls-56{fill:#ad5930;}.cls-57{fill:#793e29;}.cls-58{fill:#b79883;}.cls-59{fill:#b9754e;}.cls-60{fill:#bd7c5d;}.cls-61{fill:#cc8e69;}.cls-62{fill:#a46141;}.cls-63{fill:#7e503d;}.cls-64{fill:#2c201b;}.cls-65{fill:#8e756e;}.cls-66{fill:#1e1413;}.cls-67{fill:#ceced1;}.cls-68{fill:#8c5337;}.cls-69{fill:#8a593e;}.cls-70{fill:#412c26;}.cls-71{fill:#8d5d3f;}.cls-72{fill:#af775b;}.cls-73{fill:#352425;}.cls-74{fill:#7b3824;}.cls-75{fill:#3d3431;}.cls-76{fill:#26211a;}.cls-77{fill:#161112;}.cls-78{fill:#713e29;}.cls-79{fill:#845135;}.cls-80{fill:#181313;}.cls-81{fill:#4a3a35;}.cls-82{fill:#4c362e;}.cls-83{fill:#3b302a;}.cls-84{fill:#934732;}.cls-85{fill:#a95639;}.cls-86{fill:#f0d5b7;}.cls-87{fill:#ba8d77;}.cls-88{fill:#1d1516;}.cls-89{fill:#0b0a0b;}.cls-90{fill:#110e0f;}.cls-91{fill:#9d6246;}.cls-92{fill:#211414;}.cls-93{fill:#241511;}.cls-94{fill:#271915;}.cls-95{fill:#151111;}.cls-96{fill:#211616;}.cls-97{fill:#c38f7b;}.cls-98{fill:#c39577;}.cls-99{fill:#b17958;}.cls-100{fill:#a36750;}.cls-101{fill:#653425;}.cls-102{fill:#a76b59;}.cls-103{fill:#95573a;}.cls-104{fill:#985d40;}.cls-105{fill:#c16e48;}.cls-106{fill:#754835;}.cls-107{fill:#5a261b;}.cls-108{fill:#dcaca1;}.cls-109{fill:#1d161b;}.cls-110{fill:#b45d33;}.cls-111{fill:#3d1b17;}.cls-112{fill:#783935;}.cls-113{fill:#e1b1b6;}.cls-114{fill:#d18e9e;}.cls-115{fill:#bb8486;}.cls-116{fill:#3f2e2b;}.cls-117{fill:#b36369;}.cls-118{fill:#a85e5e;}.cls-119{fill:#c2845f;}.cls-120{fill:#cb926c;}.cls-121{fill:#d7a57d;}.cls-122{fill:#c58e77;}.cls-123{fill:#9d5c3e;}.cls-124{fill:#ba937f;}.cls-125{fill:#925940;}.cls-126{fill:#91573c;}.cls-127{fill:#72402b;}.cls-128{fill:#945b3a;}.cls-129{fill:#985c42;}.cls-130{fill:#834124;}.cls-131{fill:#b1622a;}.cls-132{fill:#c68766;}.cls-133{fill:#ddb190;}.cls-134{fill:#1e1717;}.cls-135{fill:#171212;}.cls-136{fill:#251d1d;}.cls-137{fill:#965f45;}.cls-138{fill:#271d1a;}.cls-139{fill:#241510;}.cls-140{fill:#cba48f;}.cls-141{fill:#d8b7a7;}.cls-142{fill:#b17f69;}.cls-143{fill:#c39a84;}.cls-144{fill:#a4725c;}.cls-145{fill:#080809;}.cls-146{fill:#161211;}.cls-147{fill:#493029;}.cls-148{fill:#332524;}.cls-149{fill:#cb9b85;}.cls-150{fill:#eecabe;}.cls-151{fill:#8d574a;}.cls-152{fill:#b45a35;}.cls-153{fill:#c09880;}.cls-154{fill:#b98876;}.cls-155{fill:#9f6c5c;}.cls-156{fill:#94604d;}.cls-157{fill:#6b3427;}.cls-158{fill:#7c402e;}.cls-159{fill:#84472e;}.cls-160{fill:#bf7057;}.cls-161{fill:#854937;}.cls-162{fill:#743b30;}.cls-163{fill:#5f2d21;}.cls-164{fill:#47221a;}.cls-165{fill:#e0d6cd;}.cls-166{fill:#6c4942;}.cls-167{fill:#201413;}.cls-168{fill:#5c3528;}.cls-169{fill:#ab4f2c;}.cls-170{fill:#8e5b4e;}.cls-171{fill:#834e41;}.cls-172{fill:#993643;}.cls-173{fill:#cc9c7d;}.cls-174{fill:#995026;}.cls-175{fill:#8f5b3b;}.cls-176{fill:#d4a688;}.cls-177{fill:#201514;}.cls-178{fill:#ddbba8;}.cls-179{fill:#6e3326;}.cls-180{fill:#4e271b;}.cls-181{fill:#9f6a4e;}.cls-182{fill:#894b2a;}.cls-183{fill:#110e0e;}.cls-184{fill:#331a15;}.cls-185{fill:#cca183;}.cls-186{fill:#cca288;}.cls-187{fill:#cca58c;}.cls-188{fill:#c18c75;}.cls-189{fill:#dd8b6c;}.cls-190{fill:#6a4d50;}.cls-191{fill:#7b3f24;}.cls-192{fill:#c38b75;}.cls-193{fill:#c78d73;}.cls-194{fill:#b26242;}.cls-195{fill:#bc6e4f;}.cls-196{fill:#c97f62;}.cls-197{fill:#c97440;}.cls-198{fill:#b45f2b;}.cls-199{fill:#351b14;}.cls-200{fill:#af5e2d;}.cls-201{fill:#b7856d;}.cls-202{fill:#a25b2c;}.cls-203{fill:#c49375;}.cls-204{fill:#0e0d0c;}.cls-205{fill:#471e19;}.cls-206{fill:#6b4e51;}.cls-207{fill:#ad7159;}.cls-208{fill:#7c4126;}.cls-209{fill:#5b2c1f;}.cls-210{fill:#4b5e6c;}.cls-211{fill:#ddb5a6;}.cls-212{fill:#edcec1;}.cls-213{fill:#e2beb5;}.cls-214{fill:#3a2119;}.cls-215{fill:#4b5e6d;}.cls-216{fill:#a1634a;}</style></defs><title>westbrook head</title><path class="cls-1" d="M253,222.8a37,37,0,0,0,3.71-3.07c3-3.21,6.24-4.52,10.2-1.61a5.15,5.15,0,0,0,4.3.6c5.3-1.16,10.44-1.37,15.25,1.74a3.42,3.42,0,0,0,3.77-.13c5.1-3.1,9.24-1.73,12.8,2.61a156.68,156.68,0,0,1,23,21.19c3.44,4.49,7.51,8.53,9.84,13.81-.44,4.73-4,7.53-6.89,10.6-2.09,2.21-3.84.23-5.35-1.42-4.82-5.26-8.82-11.23-14-16.16-.76-.59-1.56-1.12-2.33-1.69-5.38-4.95-11.37-9.15-17.06-13.71-3-2.38-6.49-2.21-10-2.24a2.15,2.15,0,0,0-2.36,2.54c.18,3.54-2,4-4.84,4-4.52,0-8.78-1.6-13.26-1.91a4,4,0,0,1-3.83-3.94c-.22-3.61-1.78-6.69-3.33-9.81A1.72,1.72,0,0,1,253,222.8Z" transform="translate(-166.01 -216.5)"/><path class="cls-2" d="M357,462.86c-8,15.72-19.63,28.55-32.63,40.24-1.78.44-2.49-.89-2.79-2.09-2-8-4.61-15.8-4.6-24.13,1.54-3.75,4.85-6,7.63-8.63,3.35-2,5.48-5.16,7.48-8.42,4.66-7.6,9.29-15.21,14.06-22.73,1.07-1.69,1.85-4.12,4.76-3.38C354.9,443,357.8,452.54,357,462.86Z" transform="translate(-166.01 -216.5)"/><path class="cls-3" d="M215.88,504,191.9,471c-1-4.45-.51-8.87.23-13.29,1.44-8.65,2-17.44,4-26,2-2.26,2.83,0,3.61,1.16a43.74,43.74,0,0,1,4,8.46c2.4,5.45,4.7,11,7.51,16.21-.29,5.06,1,9.53,4.73,13.16a10.18,10.18,0,0,1,2.92,4c1.21,3.82-.53,7.49-.55,11.25a14.76,14.76,0,0,1,0,2.57C217.81,493.7,218.67,499.17,215.88,504Z" transform="translate(-166.01 -216.5)"/><path class="cls-4" d="M318,476c1.22,9.24,2.36,18.5,6.32,27.1L297,531.87c-2.59-.33-2.14-2.54-2.47-4.17-1.14-5.68-1.13-11.45-1-17.21a22.46,22.46,0,0,0-1.56-9.66c-.58-3.64,3.08-3.75,4.66-5.6a30,30,0,0,1,3-1.68c5.74-2.84,9.87-6.84,10-13.75C312.28,478.26,314.43,475.52,318,476Z" transform="translate(-166.01 -216.5)"/><path class="cls-5" d="M197.2,430.64,191.9,471c-5.41-14.76-8.18-30.14-10.93-45.54-.87-4.86-2-9.69-3-14.53,1.7-6.31,6-10.94,10.14-15.67a1.69,1.69,0,0,1,2.61,0c2.68,4.64,2,9.91,2.58,14.9.73,6.24,1.27,12.44,4.21,18.14A2.81,2.81,0,0,1,197.2,430.64Z" transform="translate(-166.01 -216.5)"/><path class="cls-6" d="M292,499.87c3.39,1.36,2.91,4.41,3,7.11.12,7.42-.18,14.85,1,22.22.16,1,.1,2,1,2.68a2.94,2.94,0,0,1-3,1.92,123.81,123.81,0,0,1-14.83-5.46c-1.67-.69-3.35-1.47-4.11-3.34a58.07,58.07,0,0,1,0-18.35,5.2,5.2,0,0,1,2.29-2.43C282.2,502.7,286.53,499.36,292,499.87Z" transform="translate(-166.01 -216.5)"/><path class="cls-7" d="M215.88,504l1.17-16.2c2.39-.49,3.43,1.49,4.83,2.72,2.92,2.58,5.23,5.85,8.75,7.76a5.48,5.48,0,0,1,2.58,3.52c2.36,9.11,5.75,17.88,8.73,26.78.57,1.71,1.49,3.32,1.47,5.2a1.14,1.14,0,0,1-.82,1.13C229.08,528.62,222.6,516.22,215.88,504Z" transform="translate(-166.01 -216.5)"/><path class="cls-8" d="M357,462.86c-1.14-10-3.91-19.55-7-29.05a2.32,2.32,0,0,1-.65-1.39c2.06-9.29,4.25-18.54,7.62-27.47,1.76-3.4,3.74-6.68,5.8-9.89,1-1.57,1.81-3.75,4.45-3.21a3,3,0,0,1,.66,1.37c-.32,7-1.55,14-1.86,21,0,.25,0,.5,0,.75-2.82,1.52-2.56,4.37-2.91,6.9-1.81,13.07-3.54,26.15-5.34,39.22A6.62,6.62,0,0,1,357,462.86Z" transform="translate(-166.01 -216.5)"/><path class="cls-9" d="M276.07,525.83c5.89,2.81,12.73,3.49,17.88,8-11.51,4.74-23.39,7.31-35.91,6.09-5.51-.54-10.53-2.62-15.46-5a.66.66,0,0,0,.84,0c4.42-4.47,10.36-6.34,15.72-9.23,4.08-.62,8.22-.32,12.29-1.07A5.46,5.46,0,0,1,276.07,525.83Z" transform="translate(-166.01 -216.5)"/><path class="cls-10" d="M344.15,242.83c2.21,1.22,7.14-.12,4.91,5.32-.49,1.19,1,1.34,1.64,1.95,3.52,3.16,6.91,6.45,10.35,9.7,2,6,.45,11.45-2.12,16.83-1.81,1.36-3.19.15-4.35-1-5.67-5.49-10.16-12.27-17.46-16-.7-.36-.93-1.33-1-2.18.1-4.91,2.68-9,4.57-13.27C341.24,242.83,342.38,241.75,344.15,242.83Z" transform="translate(-166.01 -216.5)"/><path class="cls-11" d="M175,300.88l.13-1.13a3.88,3.88,0,0,1,3.67-.7c3.31,1.23,6.57,2.59,9.82,4a25.43,25.43,0,0,0,3.23,1.29c5.92,2,10.18,5.4,10.3,12.27a87.93,87.93,0,0,1,0,17.81,3.86,3.86,0,0,1-.77,1.42,1.61,1.61,0,0,1-1.45.28A359.73,359.73,0,0,1,175,300.88Z" transform="translate(-166.01 -216.5)"/><path class="cls-12" d="M177.05,342.83l.14-1.07c1.45-2.52,3.44-1.43,5.2-.61,5.42,2.53,10.66,5.44,16.25,7.61,4.48,1.74,3.24,6.08,4.38,9.35a11.82,11.82,0,0,1-.22,6.29,17,17,0,0,1-9.52,5.82,5,5,0,0,1-2.19-1.95C185.94,360.05,181.61,351.38,177.05,342.83Z" transform="translate(-166.01 -216.5)"/><path class="cls-13" d="M369.86,306.89a156.4,156.4,0,0,1,1.31,19.75,5.6,5.6,0,0,1,.23,3c-1.76,1.44-2.81-.06-3.67-1.1-5.54-6.68-12.15-12.32-18-18.67-1.62-1.75-3.9-3.4-2.62-6.41,2.57-2.13,5.72-2.19,8.81-2.46C360.67,302.6,365.77,303.57,369.86,306.89Z" transform="translate(-166.01 -216.5)"/><path class="cls-14" d="M175,300.88c4.94,4.3,8,10.12,11.65,15.35,4.56,6.46,10,12.37,13.35,19.63-1.36.77-2.62.17-3.75-.46-6.63-3.71-13.41-7.15-20-11a6.4,6.4,0,0,1-2.25-2.58C174,314.83,173.77,307.82,175,300.88Z" transform="translate(-166.01 -216.5)"/><path class="cls-15" d="M370.84,329.78l.33-3.15c1.46,6-.53,11.86-.79,17.79-.09,2.16-.34,4.31-.51,6.47-1.08,3.1,1.17,6,.62,9,.14,1.43,0,2.86,0,4.29-1.17,7.48.42,15.34-3.09,22.5-2.63.69-2.66-1.59-2.87-2.93-1.87-11.87-4.48-23.63-5.56-35.62,2.21-6.67,7.45-11.45,11-17.32A6.58,6.58,0,0,1,370.84,329.78Z" transform="translate(-166.01 -216.5)"/><path class="cls-16" d="M358,276.89c1.58-5.6,3-11.22,3-17.09,3.56,5.58,6.11,11.32,6.17,18.27.07,7.89,1.23,15.77,1.92,23.65.41,1.41,1,3.24-.31,4s-2.66-.82-3.57-1.84a44.53,44.53,0,0,1-5.3-6.39,11.73,11.73,0,0,1-1.18-3,94.46,94.46,0,0,1-2-15.44A3.62,3.62,0,0,1,358,276.89Z" transform="translate(-166.01 -216.5)"/><path class="cls-17" d="M189.92,394.86c-4.77,4.75-7.68,10.88-11.91,16a2,2,0,0,1-1-1.91,14,14,0,0,0-1.11-6.83,28.33,28.33,0,0,1-.35-6.73c-.07-5.92-.26-11.83,0-17.75a13.28,13.28,0,0,1,.38-4.19c.5-1.37.74-3.19,2.36-3.47s2.43,1.47,3,2.74c3.19,6.66,7.22,12.92,9.5,20A2.52,2.52,0,0,1,189.92,394.86Z" transform="translate(-166.01 -216.5)"/><path class="cls-18" d="M199.74,250.58c.19-3.9.81-6.77,5.45-8.67,3.14-1.29,5.26-5.54,8.17-8.23,3.83-3.53,7.65-4.83,12.5-3l.43.58c-.85,5.5-4.22,10.15-5.25,15.59a4.93,4.93,0,0,1-.74,1.3,5,5,0,0,1-3.45,1.32c-5.41-.26-10.6,1.42-15.94,1.86A1.56,1.56,0,0,1,199.74,250.58Z" transform="translate(-166.01 -216.5)"/><path class="cls-19" d="M325,244.89c-5.19-6.94-12.58-11.62-18.4-17.91-1.23-1.33-2.41-2.7-3.61-4.06,7.11-5.49,12.79-3.22,17.74,3.23a27.16,27.16,0,0,0,2.38,2.43c3.47,4.47,3.41,9.63,2.9,14.89A3.81,3.81,0,0,1,325,244.89Z" transform="translate(-166.01 -216.5)"/><path class="cls-20" d="M253,222.8l.07,1.09c-3.87,4.59-8.41,8.52-12.6,12.79-1.86,1.9-3.94,2.42-6.27.83-2.83-1.94-6.49-2.84-8-6.41l-.28-.37c4.83-7,10.89-10.59,19.74-8A11.63,11.63,0,0,0,253,222.8Z" transform="translate(-166.01 -216.5)"/><path class="cls-21" d="M174.06,321.82l26,14h0c0,2.27-2,2.6-3.45,2.81-6.48.91-12.92,2.65-19.55,1.28Z" transform="translate(-166.01 -216.5)"/><path class="cls-22" d="M325,244.89v-1c4-4.12,8.14-8.13,14.2-9.08l5,8c-5,3.77-5.37,9.76-7.15,15.06a1.33,1.33,0,0,1-2,0Z" transform="translate(-166.01 -216.5)"/><path class="cls-23" d="M177,340c7-1,13.93-2,20.88-3.06a8,8,0,0,0,2.12-1l.9,0c2.76,3.14.57,7.22,2,10.61a20.7,20.7,0,0,1,.42,5c0,.56,0,1.13,0,1.69-.12,1.68.09,3.47-1.51,4.67-.12-6.25-4.12-8.7-9.47-10.44-3.72-1.21-7.12-3.43-10.65-5.21-1.47-.75-2.91-1.68-4.58-.5Q177.12,340.86,177,340Z" transform="translate(-166.01 -216.5)"/><path class="cls-24" d="M180,278.85a53.53,53.53,0,0,1,4.86-11,1.26,1.26,0,0,1,1.3-.25c4.13,4.22,6.15,9.95,10.12,14.3a2,2,0,0,1-1.06,1.82,5.12,5.12,0,0,1-1.4.57c-2.18.78-4.25,1.84-6.45,2.55-2.88.92-4.95,2.37-5.27,5.75-.14,1.43-.68,3.71-3,1.35C177.53,288.79,178.8,283.82,180,278.85Z" transform="translate(-166.01 -216.5)"/><path class="cls-25" d="M371,354.08c1.5-.06,3.14.26,4.46-.26,5.45-2.11,10.09-.52,13.18,3.81,2.58,3.62,1.6,8.18.45,12.37-1.57-2.57-2.8-5.6-6.76-4.84a7.29,7.29,0,0,1-2.09-.51C376.71,361.56,372.23,359.26,371,354.08Z" transform="translate(-166.01 -216.5)"/><path class="cls-26" d="M177.05,342.83c4.16,2.19,4.59,6.94,6.92,10.38,3.12,4.6,5.4,9.76,8,14.68-.09,2.31-1.6,1.05-2.19.64-5.2-3.63-10.57-7.07-14.73-12,0-.23-.06-.47-.09-.71C178.42,351.94,176.46,347.18,177.05,342.83Z" transform="translate(-166.01 -216.5)"/><path class="cls-27" d="M186,267.9l-1.16-.07c-.26-10.28,7.47-13.64,14.92-17.25a2,2,0,0,0,.4.4c3.65,2,8,.78,11.71,2.55.59.78.22,1.36-.4,1.89-9.22.1-16.16,5-22.67,10.81A3.11,3.11,0,0,1,186,267.9Z" transform="translate(-166.01 -216.5)"/><path class="cls-28" d="M339.2,234.81,325,243.89a67.78,67.78,0,0,0-1.89-15.3C327.77,232.48,333.35,234,339.2,234.81Z" transform="translate(-166.01 -216.5)"/><path class="cls-29" d="M388.12,391,383,401.91c-1.15.53-1.91-.14-2.64-.88-1.87-3-2.24-6.49-3-9.85a3.35,3.35,0,0,1,.24-1.49c1.41-2,3.61-2.83,5.77-3.72a6.12,6.12,0,0,1,1.62-.25C388.74,385.9,389,388.12,388.12,391Z" transform="translate(-166.01 -216.5)"/><path class="cls-30" d="M177,372.93l-.13,4.14a51.66,51.66,0,0,0-3.21,7.79c-.75,1.6-1.75,2.75-3.75,2.07-1.47-1.87-.9-4-.89-6.12,1.37-5,4.15-9.66,3.42-15.13.8-1.85.65-4.34,3.33-4.9C179.49,364.5,178.15,368.72,177,372.93Z" transform="translate(-166.01 -216.5)"/><path class="cls-31" d="M180,278.85l.05,16c1.54,2.15,1.3,3.9-1.17,5.13l-3.7-.26c-2.65-5.5-.07-10.28,2.11-15.1C178.13,282.71,179.06,280.78,180,278.85Z" transform="translate(-166.01 -216.5)"/><path class="cls-32" d="M381.08,400.83l1.94,1.08a5,5,0,0,1-2.93,4c-2.87-.33-6,1.69-8.65-.8-2.17-3.68-4.31-7.38-3.92-11.91.32-2.32,1.68-1.57,2.84-.87,2,1.22,3.25,3.27,4.92,4.87,1.29,1.53,3.2,2.52,4.24,4.2C381.53,404.73,380.09,399.76,381.08,400.83Z" transform="translate(-166.01 -216.5)"/><path class="cls-33" d="M175,360.9a6.36,6.36,0,0,1-1.83,4.94c-2.41,1.24-3.61-.66-5.07-1.93-2.92-.41-2.14-2.29-1.57-4s.85-4,3.55-4c1.64,0,3.27,0,4.91-.06l0,.12C176,357.61,176.6,359.25,175,360.9Z" transform="translate(-166.01 -216.5)"/><path class="cls-34" d="M169.94,386.93c1-.65,2.3-.78,2.84-2,2.58,3.17,2,7.56,4.14,10.87l.13,7.08c.3,1.76,1.47,3.68-.92,4.93-1-5.67-5.53-10-5.69-16C170.41,390.16,170.12,388.55,169.94,386.93Z" transform="translate(-166.01 -216.5)"/><path class="cls-35" d="M380,363.82l2.07.11c2.59,2.36,5.36,4.56,6.84,7.89l0,1.1c-.43,4.15-2.78,3.52-5.42,2.2-1.71-.81-3.62-.89-5.4-1.47-2.53-1-2.91-2.77-1.63-5a22.59,22.59,0,0,1,2.87-4.44Z" transform="translate(-166.01 -216.5)"/><path class="cls-36" d="M384,373.89c2,1.29,3.8,2,4.93-1-.39,6,1,12.11-.8,18.07.31-3-.84-4.62-4.1-4.09C381.93,382.56,381.42,378.23,384,373.89Z" transform="translate(-166.01 -216.5)"/><path class="cls-37" d="M372,404.89c2.55,1.42,5.69-1.56,8.08,1.06-4.22,3.73-8.2,7.84-14,9.05l-.36-.37C365.93,410.18,369.06,407.59,372,404.89Z" transform="translate(-166.01 -216.5)"/><path class="cls-38" d="M361,296.92l7,8.4c1.48-1,.57-2.53,1.1-3.6a8.33,8.33,0,0,1,.72,5.17,65,65,0,0,1-13.86-5C355.87,298.43,356.77,296,361,296.92Z" transform="translate(-166.01 -216.5)"/><path class="cls-39" d="M371,354.08l8.92,9.74,0,.22c-3.68,2-7.31,2.21-10.89-.24l.23-4c.73-2-.55-4.22.83-6.11Z" transform="translate(-166.01 -216.5)"/><path class="cls-40" d="M168.12,363.91c2,0,3.34,1.38,5.07,1.93,1.78,5.86-1.08,10.44-4.13,15C168.76,375.17,170.54,369.43,168.12,363.91Z" transform="translate(-166.01 -216.5)"/><path class="cls-41" d="M388.88,371.81c-2.66-2.3-5.87-4.13-6.84-7.89,5-1,7.94.32,7.1,6.09Z" transform="translate(-166.01 -216.5)"/><path class="cls-25" d="M370.13,353.64c-.46,2,.5,4.22-.83,6.11,0-3-.74-6,.56-8.85Z" transform="translate(-166.01 -216.5)"/><path class="cls-5" d="M176.14,407.78c1.48-1.43.59-3.29.92-4.93A4.93,4.93,0,0,1,177,409Z" transform="translate(-166.01 -216.5)"/><path class="cls-42" d="M308,248.89a2.12,2.12,0,0,1,2,1,2.41,2.41,0,0,1,.16,1.91c-3.73,7.44-7.31,15-12.87,21.32a2.3,2.3,0,0,1-2.64-.94c-2.43-3.7-5-3-7.71-.41-4.37,4.2-10,7-14,11.53,3.17,3.68,9,3,10.67,8a2.67,2.67,0,0,1-.61,1.38c-6,3.19-12.81,3.11-19.29,4.3-3.36-.62-6.22-2.33-9-4.14a2.16,2.16,0,0,1-.83-1.95,73.39,73.39,0,0,1,8.42-5c2.22-1.25,3-2.43.68-4.38-1.3-1.11-3.08-2.31-1.36-4.45,2.77-2.07,5.39-4.42,8.36-6.13,5.41-3.13,7.63-7.32,5.72-13.42,2-3,5-1.59,7.65-2,1.28-.17,3,.37,3.66-.86.77-1.4-.89-2.25-1.64-3.25-2.36-3.16-5.24-5.86-7.78-8.86a2.19,2.19,0,0,1,.6-2.12A2.8,2.8,0,0,1,280,240C289.58,242.11,299.28,244,308,248.89Z" transform="translate(-166.01 -216.5)"/><path class="cls-43" d="M297,272.89l13-23c5.93,4.64,9.76,11.15,14.69,16.69,2.14,2.4,2.93,2.47,4.63-.13,1.87-2.86,4.89-5,5.68-8.55h2c9,4.14,13.37,13.36,21,19v2c-3,2.54-6.76,3.29-10.5,4a5.4,5.4,0,0,1-1.48-.21,162.26,162.26,0,0,1-14.08-8.28c-3.22-2-6-2.35-8.86.62a9,9,0,0,1-5.13,2.84c-5.9-.14-11.65-1.37-17.41-2.44C299.09,275.13,297.08,275.26,297,272.89Z" transform="translate(-166.01 -216.5)"/><path class="cls-44" d="M308,248.89c-10.12-2.23-19.73-6.36-30-8-1.88,1.71-4,.85-6.18.82-8.72-.14-17.59-2.2-26,2-2.09,1-4.34,1.8-5.94,3.58-2.83,3.13-5.93,3.34-9.36,1.1-3.27-2.13-7.23.58-10.51-1.47.88-5.71,3.25-10.85,6.13-15.79,11.06,7.1,11,7.06,20.4-2.18,1.94-1.91,3.34-4.64,6.49-5a10.17,10.17,0,0,1,3.95,8.7c-.14,3.29,1.42,4.56,4.54,4.31,4.14-.33,7.87,1.9,12.11,1.7,2.75-.13,3.83-.14,2.76-3.11-1-2.67.32-3.57,2.93-3.62,5.59-.1,10.61.76,14.89,5S304.34,243.78,308,248.89Z" transform="translate(-166.01 -216.5)"/><path class="cls-45" d="M350,432.87q0,.47,0,.93-8.31,13.16-16.62,26.32c-2.18,3.44-3.92,7.33-8.21,8.81a1.11,1.11,0,0,1-1.26.2c-2.3-3.58-6.17-5.42-9.18-8.23A5,5,0,0,1,315,458c3.78-10.79,8.29-21.3,12.16-32.06a10,10,0,0,1,2.5-4.24c.43-.25.95-.59,1.38-.44C338.2,423.72,344.93,426.92,350,432.87Z" transform="translate(-166.01 -216.5)"/><path class="cls-46" d="M324,468.88l1.15.05L318,476c-2.75,1.2-4.65,4.12-8.07,4a2.48,2.48,0,0,1-1.62-1.19c-.87-2.36-2.28-4.51-2.79-7a1.92,1.92,0,0,1,.64-1.26,4.5,4.5,0,0,1,2.17-.51c3.44-.12,6.72-1.15,10.09-1.67C320.35,468,322.3,467.26,324,468.88Z" transform="translate(-166.01 -216.5)"/><path class="cls-47" d="M197.2,430.64l-.31-1.72c5.56-3,9.88-7.68,15-11.28a2.27,2.27,0,0,1,1.95.7c4.71,6.84,9.9,13.37,13.55,20.91a1.73,1.73,0,0,1-.82,1.3,5.11,5.11,0,0,1-1.55.59c-7.37-.05-14.7,1.13-22.08.8Z" transform="translate(-166.01 -216.5)"/><path class="cls-48" d="M203,441.94c7.46-3.07,15.31-1.78,23-2,.32.39.74.85.63,1.31-1.94,7.65-3.5,15.45-8,22.17-4.26.59-6.1-2.31-7.79-5.43C206.68,453.36,205.27,447.42,203,441.94Z" transform="translate(-166.01 -216.5)"/><path class="cls-49" d="M210.81,458l6.89,5.14a4,4,0,0,1,3.82,3.73c-.25,2.37-.61,4.72-2.06,6.73a1.66,1.66,0,0,1-1.3.42c-5.56-3.16-7.6-8.36-8.4-14.33C209.63,458.61,209.77,458.1,210.81,458Z" transform="translate(-166.01 -216.5)"/><path class="cls-50" d="M230,498.92c-4.18-1-6-4.94-9-7.36-1.42-1.14-2.67-2.48-4-3.73l.22-1.94c1.84-2.64,2.51-6.76,7.25-5.7,1,5.58,1.46,11.3,5.41,15.86C230.48,497,230.79,497.94,230,498.92Z" transform="translate(-166.01 -216.5)"/><path class="cls-51" d="M224,479.89l-6.73,6,.9-11.91.66-.3.67,0a10.66,10.66,0,0,1,5.23.67c1,.64.91,1.72,1.09,2.68.22.76.89,1.17,1.37,1.74a1.93,1.93,0,0,1,.16,1.18,2.37,2.37,0,0,1-1.32,1.29C225,481.37,224.53,480.55,224,479.89Z" transform="translate(-166.01 -216.5)"/><path class="cls-52" d="M292,499.87l-14,5.06c-.11-4.08,3.73-5.16,5.76-7.62a9.78,9.78,0,0,1,1-.95,10.82,10.82,0,0,1,1.07-.84c4.38-3.36,7.13-8.2,11-12,.71-.69,1.41-1.39,1.09-2.54,1.23-1.38,2.66-2,4.45-1.12,3.3,6,3.22,6.75-1.4,12.28a24.71,24.71,0,0,1-3.93,3.78C296.21,498.34,293.6,498.47,292,499.87Z" transform="translate(-166.01 -216.5)"/><path class="cls-53" d="M297,495.93a14,14,0,0,1,1.64-3c3.5-3.81,6.24-7.74,3.22-13.12a1.14,1.14,0,0,1,.19-1.23c2.37-1.43,4.66.76,7,.17l.9,1.19C310.1,488.8,307,492.62,297,495.93Z" transform="translate(-166.01 -216.5)"/><path class="cls-54" d="M212,417.9c-4.3,4.69-8.24,9.88-15.12,11-6-8-4.08-17.78-5.85-26.73-.48-2.43-.75-4.89-1.12-7.34L190,393a1.48,1.48,0,0,1,1.24-.32,3.12,3.12,0,0,1,2.35,2.24c4.08,6.63,10.27,11.43,15,17.46C210,414,212.58,415,212,417.9Z" transform="translate(-166.01 -216.5)"/><path class="cls-55" d="M276.07,525.83c-6,.3-12,1.58-18.08,1.1-2.91-1.13-3.18-4-4.2-6.39-1.38-3.18-2.71-6.4-3.84-9.69-.58-1.7-1.34-3.54.82-4.83,7.79-1.48,15.7-.4,23.53-1a2.26,2.26,0,0,1,1.66,1Z" transform="translate(-166.01 -216.5)"/><path class="cls-56" d="M276,505.94c-8.63,1.51-17.34.73-26,1-1.13.43-2-.16-2.83-.76-1.56-1.73-4.05-2.92-3.47-5.91,1.65-2.23,4.12-1.9,6.4-1.93,3.83-.06,7.66-.18,11.48.07,6.28.13,12.58.54,18.71-1.49a4.66,4.66,0,0,1,4.7.81c-2.26,2.46-5.27,4.18-7,7.19Z" transform="translate(-166.01 -216.5)"/><path class="cls-57" d="M247.86,505.79,250,507l8,20c-4.29,3.7-9.51,5.72-14.57,8-5-10.61-8.39-21.75-11.42-33C237.92,500.63,242.77,503.69,247.86,505.79Z" transform="translate(-166.01 -216.5)"/><path class="cls-58" d="M247.86,505.79c-5.56-.16-10.53-2.73-15.85-3.86.14-1.54-1.34-2-2-3,.08-.84.11-1.66-.87-2-1-3.36-3.38-6.47-2-10.29,1.69-2.32,3.09-.87,4.38.43a32.53,32.53,0,0,1,4.06,5.53,10.12,10.12,0,0,0,2.18,2.68c2.45,1.78,4.85,3.61,6.11,6.51C245.39,502.93,247.08,503.91,247.86,505.79Z" transform="translate(-166.01 -216.5)"/><path class="cls-59" d="M360,346.93c2.41,13.32,3.6,26.86,7,40a3.22,3.22,0,0,1,1.07,2.87,3.27,3.27,0,0,1-1.08,2.07c-4.14,3.55-5.48,9-9,13a1.14,1.14,0,0,1-1.51-.18c-1.47-1.74-1.63-3.91-2-6-2.2-11.52-4.22-23.08-6.64-34.57a10.27,10.27,0,0,1-.24-2.53c-.72-7.57-1.75-15.11-2.48-22.68-.16-1.64-.55-3.27,0-4.91,1.17-2.48,2.73-1.22,3.92-.19C353.35,337.59,357.28,341.74,360,346.93Z" transform="translate(-166.01 -216.5)"/><path class="cls-60" d="M357,404.87l1,0-8,28c-6.59-3.74-12.54-8.63-19.9-11a2.19,2.19,0,0,1-.59-1.31c.66-6.91,2.41-13.65,3.4-20.51.23-1.61.91-3.23-.12-4.81a3.66,3.66,0,0,1-.38-1.37,2.69,2.69,0,0,1,1.5-2.3,3.76,3.76,0,0,1,2.72.62C343.43,396.43,350.18,400.75,357,404.87Z" transform="translate(-166.01 -216.5)"/><path class="cls-61" d="M367,391.87l0-2c1.4-3.89.74-8.63,4.74-11.45,4.5,2.4,5.76,6.63,6.31,11.25l0,1.16c0,2.78-.47,5.37-3.2,6.9-3.17-.36-3.12-5.26-6.83-4.85-.39.45-.7.38-.95-.15A6.19,6.19,0,0,0,367,391.87Z" transform="translate(-166.01 -216.5)"/><path class="cls-62" d="M367,392.77l.95.15c.36,4.32,3.17,7.82,4,12-1,3.95-4.72,6.17-6.32,9.75-3.24-1.2-.6-3.42-.53-4.88C365.42,404.08,366.34,398.43,367,392.77Z" transform="translate(-166.01 -216.5)"/><path class="cls-63" d="M201.86,347.13c-1.25-3.67-.43-7.5-.9-11.23L200.86,316c-.19-6.39-3.28-12.41-2.4-18.94,1-2.91,3.52-2.38,5.76-2.46a7.64,7.64,0,0,1,2.33.49c6.47,5.43,11.48,12.18,16.8,18.65a2.52,2.52,0,0,1-.14,1.41c-6.13,6-11.38,12.76-17.68,18.57-1.37,1.26-2.37,2.76-2,4.79C203.23,341.42,204.37,344.62,201.86,347.13Z" transform="translate(-166.01 -216.5)"/><path class="cls-64" d="M178.84,300c1.15-1.54,1-3.36,1.17-5.13,0-9.41,8-9.59,14-12,1.51,2.25.51,4.56-.1,6.7-1.26,4.46-2.47,8.94-4,13.34a1.83,1.83,0,0,1-2,1.1C184.88,302.8,181.6,302,178.84,300Z" transform="translate(-166.01 -216.5)"/><path class="cls-65" d="M188,304l1.16-.94c2.63-3.18,5.55-5.9,9.92-6.38,1.37,6.35,2.46,12.72,1.83,19.25C200.82,307.39,193.13,307.08,188,304Z" transform="translate(-166.01 -216.5)"/><path class="cls-66" d="M193.07,370l8.88-5.52c2.29-1.37,4.48-.35,6.68.3,4.59,1.37,9,3.25,13.49,4.92,4.16,2.42,8,5.32,11.95,8.05,1.55,1.07,3.57,2.3,1.58,4.71-2.26,1.15-4.5.41-6.72-.13-6.06-1.46-12.13-2.88-18.27-4a58.27,58.27,0,0,1-15.22-1.64C192.85,375.15,192.11,372.88,193.07,370Z" transform="translate(-166.01 -216.5)"/><path class="cls-67" d="M193.07,370l2,5.95c.8,5.9-1.73,11.07-3.57,16.4l-.66.43a1.91,1.91,0,0,0-.78.16l-11.26-22.44L177,372.93c-.08-4.11.33-8.3-2-12q0-2.47,0-4.94l15,11.42c.59.45,1.07,1.45,2,.51A2.53,2.53,0,0,1,193.07,370Z" transform="translate(-166.01 -216.5)"/><path class="cls-68" d="M222,370.83c-6.83-1.67-13-5.26-20.06-6.32q0-3.3-.06-6.59l.27-5c2.72.68,2,3,2.14,4.77.22,2.52,1.3,2.81,3.17,1.54,3.13-2.13,6.52-3.81,9.7-5.85,2-1.28,4.15-2.44,5.83.55C223.53,359.63,225,365.36,222,370.83Z" transform="translate(-166.01 -216.5)"/><path class="cls-69" d="M370.84,329.78l0,1.08a4.35,4.35,0,0,1-3.12,1.39c-7.11-.07-14.25,1-21.33-.44a3.44,3.44,0,0,1-1.21-1.33c-1.1-3.22-.29-6.58-.76-9.86.35-5.43-1-11,1-16.29a1.16,1.16,0,0,1,1.58-.44c2.08,4.76,6.4,7.57,9.76,11.2C361.36,320.07,366.13,324.89,370.84,329.78Z" transform="translate(-166.01 -216.5)"/><path class="cls-70" d="M347,303.9l-.48,0-.48,0c-1.07.18-1.37-.49-1.51-1.35.85-4.65,1-9.38,1.43-14.08.86-1.87.1-4.91,2.46-5.52,2.52-.66,4,1.91,5.42,3.64,2.18,2.67,4.67,5.12,6.18,8.29l1,2c-3.1.21-3.81,2.82-5,5Z" transform="translate(-166.01 -216.5)"/><path class="cls-71" d="M346.14,330.85h24.71c-2.66,6-7.33,10.67-10.9,16.06-5.22-4.13-8.39-10.26-13.87-14.13A1.26,1.26,0,0,1,346.14,330.85Z" transform="translate(-166.01 -216.5)"/><path class="cls-72" d="M372.1,378.81c-2.64,3.26-2.76,7.68-5.1,11.08q0-1.48,0-3l2.07-23.13L380,364c-.1,2.09-1.36,3.62-2.55,5.16s-.86,2.62.68,3.55a3.09,3.09,0,0,1-1.39,1.41C374.7,375.24,374.08,377.69,372.1,378.81Z" transform="translate(-166.01 -216.5)"/><path class="cls-73" d="M360,294.89c-4.74-2.76-6.66-8.37-11.2-11.39-1.53,1.24-.08,3.44-1.78,4.39-1.8-2-1.56-4,0-6,3.76-.66,7.09-2.84,11-3Z" transform="translate(-166.01 -216.5)"/><path class="cls-74" d="M176.93,395.77c-3.3-2.89-4.28-6.67-4.14-10.87a10.4,10.4,0,0,1,4.12-7.83Q176.92,386.42,176.93,395.77Z" transform="translate(-166.01 -216.5)"/><path class="cls-75" d="M211,254.9l1-1a7.42,7.42,0,0,1,5-5l3-1c2.64.75,3.4,2.93,4,5.24a5.4,5.4,0,0,1-.5,3.11c-4,4.17-9.13,5.14-14.64,4.87C207.23,258.24,208.63,256.4,211,254.9Z" transform="translate(-166.01 -216.5)"/><path class="cls-76" d="M223,252.9l-3-5v-1c3.67-.31,7.33-2.2,11,0,1,2.64,5.36,3.55,3.75,7.48a4.25,4.25,0,0,1-1.46.66C229.69,255.2,226.16,254.95,223,252.9Z" transform="translate(-166.01 -216.5)"/><path class="cls-77" d="M217,248.91a16.66,16.66,0,0,1-5,5c-4-.86-8.94,2.22-11.87-2.91C205.62,249.08,211.13,247.42,217,248.91Z" transform="translate(-166.01 -216.5)"/><path class="cls-78" d="M201.86,347.13l.23-10.23a6.06,6.06,0,0,1,4.58-1.46c9.05.06,18.1-.31,27.15-.25,1.64,0,3.34,0,4.41,1.61a2.94,2.94,0,0,1-.7,3.6c-4.77,4.37-8.9,9.56-15.19,12-.57,0-1.13,0-1.7,0-6.21,1.1-12.41,2.46-18.5-.51Z" transform="translate(-166.01 -216.5)"/><path class="cls-79" d="M202.12,351.87l19.91,0a.61.61,0,0,1,.19.65q-.12.31-.23.31c-5.38,1.4-9.44,5.2-14.17,7.78-1.28.7-2.46,2.27-3.93,1.59-1.65-.75-.67-2.67-.87-4.07-.26-1.76.56-3.68-.85-5.25Z" transform="translate(-166.01 -216.5)"/><path class="cls-80" d="M186,267.9l2-2c4.29-3.32,9.43-3.73,14.53-4.22,3.43,2.08,3.4,2.3-.95,6.47,3.35-.48,6.6-1,9.86-1.35,2.36-.29,5-1,6.81,1.51-.57,3.76-4,4.78-6.46,6.67-5.15,2.57-9.6,6.74-15.8,6.9C190.53,278.75,189,272.79,186,267.9Z" transform="translate(-166.01 -216.5)"/><path class="cls-81" d="M196,281.89c4.95-2.76,10.38-4.62,15-8,4.23-1.28,4.8,1.27,4.74,4.5-.15.47-.24,1.06-.62,1.33-5.45,3.86-7.35,9.38-7.48,15.75l-.53.57-2.12-.24c-4-3.78-8.55-7.15-10-12.92Z" transform="translate(-166.01 -216.5)"/><path class="cls-82" d="M195,282.9c2.92,4.62,7.64,7.85,10,12.92-2,.41-4.16-.65-6,.9l-9.92,6.38c.52-7,4-13.29,4.89-20.2Z" transform="translate(-166.01 -216.5)"/><path class="cls-83" d="M203,262.88l-15,3c1-3.76,5-3.91,7.26-6.14,4.4-4.31,9.71-5.78,15.74-4.87-.87,1.93-2.25,3.68-2,6C207.7,263.65,204.86,261.83,203,262.88Z" transform="translate(-166.01 -216.5)"/><path class="cls-84" d="M372.1,378.81A9.43,9.43,0,0,1,376,373c4.36,3.64,7.52,7.89,7,14a11.87,11.87,0,0,1-5,2.78Z" transform="translate(-166.01 -216.5)"/><path class="cls-85" d="M383,386.92c-1-5.35-4.78-9.27-7-14l2.11-.21c2,.19,4.09,0,5.9,1.15q0,6.5,0,13Q383.52,386.89,383,386.92Z" transform="translate(-166.01 -216.5)"/><path class="cls-86" d="M374.8,397.76l3.2-6.9c1.86,3.07,1.9,6.69,3.07,10-.52.67.74,3.62-1.73,1.68C377.67,401.2,375.36,400.24,374.8,397.76Z" transform="translate(-166.01 -216.5)"/><path class="cls-87" d="M263,296l20-4.18c4.28-1.88,6.32,1.71,9,3.7a2.38,2.38,0,0,1,.35,1.43c-6.43,11.79-12.26,23.93-19.78,35.12a3.6,3.6,0,0,1-1.38.51,4.06,4.06,0,0,1-1.45-.24c-6.37-5.47-12.47-11.2-16.61-18.67C255.54,307.3,257.95,300.91,263,296Z" transform="translate(-166.01 -216.5)"/><path class="cls-44" d="M278,242.89c5.62,1.86,7.49,7.57,11.27,11.31,1.6,1.59-1,2.43-2.69,2.68-3.51.53-7.22-1.11-10.58,1-3.54,5-6.83,10.23-12.26,13.54a32.5,32.5,0,0,1-6.64-.69C253,269,249,267,244.92,265.17s-4.72-3.64-2.69-7.46c2.71-5.12,6-9.92,9.05-14.83,1.49-2.37,3.58-2.95,6.43-2.14,4.25,1.19,7.63,3.94,11.49,5.81,5,2.43,5,2.52,7.42-2.27A3.24,3.24,0,0,1,278,242.89Z" transform="translate(-166.01 -216.5)"/><path class="cls-88" d="M278,242.89c-2.22,8.42-2.24,8.46-9.75,4.61-3.54-1.82-7-3.74-10.47-5.73-2.44-1.41-4.13-.55-5.43,1.56-3,4.8-5.73,9.71-8.82,14.42-2.32,3.54-1.12,5.39,2.43,6.62a36.55,36.55,0,0,1,11,5.53,3,3,0,0,1-1.19,1.9c-9,4.4-18.28,8.28-27.47,12.32a5.24,5.24,0,0,1-3.84.42,2.47,2.47,0,0,1-1.2-1.05c-1.22-3.46-.89-7-.38-10.48,1.52-3.73,5.29-4.71,8.29-6.5,6.68-4,6.75-3.87,4-10.67a4,4,0,0,1-.22-1.93c-1.23-2.39-3.53-4.17-4-7,3.1,2.57,5.13,2.16,8.26-.94,4.45-4.41,10.78-6.36,17.05-6.3,7.22.07,14.51,0,21.69,1.24Z" transform="translate(-166.01 -216.5)"/><path class="cls-89" d="M297,272.89c7.14,2.4,14.69,2.56,22,4,2.06,1.64,3.58,3.35.8,5.67-1.69.76-3.57.79-5.3,1.39-6.24,1.09-12.69.8-18.79,2.85a23.43,23.43,0,0,0-5.94,3.19c-2.12,1.44-4.32,2-6.77.89-3.75-3-8.35-4.42-13.19-7,6.72-5.38,13.06-10.48,19.42-15.55,1.54-1.23,2.87-1,4.29.47C294.75,270.13,295.11,272.18,297,272.89Z" transform="translate(-166.01 -216.5)"/><path class="cls-90" d="M256,270.89l1-1c2.33.38,4.89-.9,7,1,2.26,3.17-.74,4.84-2,7-.5,2.47,1.84,2.57,3,3.64s2.91,2.78.53,3.88c-3.87,1.79-6.91,5.37-11.56,5.48-3.75,0-6.33-2-8.38-4.92-.26-3.64,2.75-5.37,4.57-7.78A60.25,60.25,0,0,1,256,270.89Z" transform="translate(-166.01 -216.5)"/><path class="cls-91" d="M263,296l-9.12,17.83a1.35,1.35,0,0,1-1.32.26c-4.38-3.1-7-7.85-10.84-11.48-1.7-1.61-1-3.29.56-4.71,3.93-2.72,8-5.23,12.82-6Z" transform="translate(-166.01 -216.5)"/><path class="cls-92" d="M262,277.89c.15-2.48,2.39-4.36,2-7,4.08-4.26,6.95-9.64,12-13,3,7.2,3.06,7.76-2.65,12C269.63,272.63,266.27,275.92,262,277.89Z" transform="translate(-166.01 -216.5)"/><path class="cls-93" d="M255.14,292,243,298.83c-3.29,1.8-5-.72-7.05-2.5a2.15,2.15,0,0,1-.23-1.42c2.2-2.63,5-4.69,7-7.54.72-1,1.7-2.09,3.29-1.47l8,5Z" transform="translate(-166.01 -216.5)"/><path class="cls-94" d="M283,290.89c2.94.55,5-1.29,7.14-2.74,1.51-1,3-2.08,4.86-2.25,2,3.61-1,6.22-1.85,9.27a3.35,3.35,0,0,1-1,1c-3.49-.46-5.14-4.84-9.1-4.29Q283,291.37,283,290.89Z" transform="translate(-166.01 -216.5)"/><path class="cls-95" d="M320,281.86c1.48-2-1.32-3.18-1-5,8.09-6.54,8.14-6.61,17-1.44,3.41,2,7.06,3.65,10,6.44.53,2.12-1.15,3-2.43,3.87-3.92,2.65-7.27,6.37-12.35,7C326.23,290.41,323.83,285.4,320,281.86Z" transform="translate(-166.01 -216.5)"/><path class="cls-96" d="M331,291.89c5.88-2,10.53-5.88,15-10h1q0,3,0,6c-.22,5,.78,10.25-1.95,15-6.18-1.12-10-5.69-14.33-9.63A1.4,1.4,0,0,1,331,291.89Z" transform="translate(-166.01 -216.5)"/><path class="cls-97" d="M330,420.9q0,.5.05,1l-14.14,37c-1.9,1.33-3.16-.1-4.31-1.18a159.17,159.17,0,0,1-18.1-19.81,3.78,3.78,0,0,1,.41-3.33c4-6.2,7.44-12.84,12.71-18.18a5.29,5.29,0,0,1,1.49-.58c6.45,0,12.66,1.61,18.93,2.81A3.49,3.49,0,0,1,330,420.9Z" transform="translate(-166.01 -216.5)"/><path class="cls-98" d="M294.08,437.88c6.61,5.26,11,12.68,17.47,18.07,1.36,1.13,2.3,2.89,4.39,2.93l-.93,2c-1.17,4.16-3.09,7.78-7,10l-1.85-.06c-2-.93-2.49-3-3.28-4.74-3.25-7.39-6.2-14.91-9.63-22.22a6.73,6.73,0,0,1,.25-5.45Z" transform="translate(-166.01 -216.5)"/><path class="cls-99" d="M308,470.88l7-10c3.88,1.67,8.14,2.91,9,8-4.62.82-9.25,1.61-13.86,2.5C309.26,471.55,308.57,471.63,308,470.88Z" transform="translate(-166.01 -216.5)"/><path class="cls-100" d="M294,443.89c2.9,2.34,3.19,6,4.57,9.11,2.61,5.9,5,11.88,7.55,17.82a5.72,5.72,0,0,0-.07.94c-3.11,1.83-5.95.05-8.86-.67-2-1.34-4.25,0-6.3-.73-3.85-2.51-8.55-2.69-12.65-4.53a6.69,6.69,0,0,1-2.42-1.59,3,3,0,0,1-.46-1.34c.71-3.38,3.57-4.95,5.89-7,2.83-2.5,6.2-4.37,8.52-7.44a14.81,14.81,0,0,1,1.67-2C292.39,445.7,292.93,444.53,294,443.89Z" transform="translate(-166.01 -216.5)"/><path class="cls-101" d="M297,469.82l9.08,1.94a12.38,12.38,0,0,1,3,7c-.1,1.74-1.11,1.54-2.34,1.19-1.53-.43-3.1-.71-4.65-1.05a6.52,6.52,0,0,1-5.16-2.51,17.45,17.45,0,0,1-2.58-3.51C293.1,470,293.7,468.74,297,469.82Z" transform="translate(-166.01 -216.5)"/><path class="cls-102" d="M226.93,438.92c-5.41-6.13-9.15-13.42-13.91-20a6.39,6.39,0,0,1,1.89-3c8.41-5,16.78-10.08,25.21-15.07,1.27-.75,2.51-1.67,4.14-1.44a2.08,2.08,0,0,1,1.37,1.66c-1.25,7.56-4.54,14.49-6.67,21.78-.84,2.85-3.3,6,1.22,8-1.7,1.87-4.2,1-6.2,1.87C230.66,433.69,229.61,437.24,226.93,438.92Z" transform="translate(-166.01 -216.5)"/><path class="cls-103" d="M220.88,466.81l-3.18-3.72c3.88-7.33,5.68-15.4,8.27-23.19h1c4.28,1.82,6.7,5.7,9.82,8.82,1.85,2.91,4.71,4.93,6.78,7.64,1.51,2,3.84,3.75,2.66,6.83-2,2-4.66,2.64-7.19,3.55-1.63.47-3.35.46-5,1-1.43.35-2.89.58-4.3,1.05a11.82,11.82,0,0,1-3.09.34C224.52,468.94,222.35,468.73,220.88,466.81Z" transform="translate(-166.01 -216.5)"/><path class="cls-104" d="M215.06,417.1l-2,1.82-1-1c-5.79-6.29-11.62-12.53-17.32-18.9-1-1.09-3.66-1.84-1.61-4.21a3.35,3.35,0,0,1,3-.77c4.08.66,8.06,1.86,12.13,2.57,4.22,1.1,8.39,2.35,12.5,3.79,1.34,2.3-1.1,3.43-1.64,5.16C217.85,409.43,215.78,413,215.06,417.1Z" transform="translate(-166.01 -216.5)"/><path class="cls-105" d="M236,448.94a52.36,52.36,0,0,1-9.06-9,8.62,8.62,0,0,0,0-1,10,10,0,0,1,6.06-7.06c2.46-.16,1.89,1.79,1.93,3,.07,2.16,0,4.29,1.55,6a10.38,10.38,0,0,0,2.64,2.19c1.77,1.83,5.52,2.08,4.77,5.94A6.48,6.48,0,0,1,236,448.94Z" transform="translate(-166.01 -216.5)"/><path class="cls-106" d="M220.88,466.81l6.14,1.1a12.73,12.73,0,0,1-7.81,6.19,1.31,1.31,0,0,1-.39-.43A20,20,0,0,1,220.88,466.81Z" transform="translate(-166.01 -216.5)"/><path class="cls-107" d="M228.15,486.12c-1,3.7,1.45,7.09,1,10.75-4.54-4.8-5.85-10.59-5.14-17l2,1C228.69,481.82,229.43,483.56,228.15,486.12Z" transform="translate(-166.01 -216.5)"/><path class="cls-108" d="M297.9,476.07l4.18,2.82a1.4,1.4,0,0,0-.21.92c-.85,1.39-2.54,1.09-3.71,1.84-1.75,2.12-4.06,1.64-6.33,1.38-4.71-1.48-9.49-2.83-14.06-4.69A14.45,14.45,0,0,0,265,479c-1.89,1-3.82,2-6.08,1.82a29.17,29.17,0,0,1-6.54-2.18c-5.68-2.34-11.13-3.38-17-.18-3.43,1.86-7.33.76-10.91-.65l.57-2.91c1-2.36,3.26-2.58,5.31-3.17,5.71.32,10.72-2.94,16.31-3.21a14.08,14.08,0,0,1,2.32,0c4.45-.14,8.09,3.93,12.8,2.47,2.16-.5,4.23-1.36,6.39-1.87a6.27,6.27,0,0,1,1.53-.09,105.41,105.41,0,0,1,12.18,1.68c1.27.23,2.48.71,3.76.9C289.76,472.83,294.25,473.29,297.9,476.07Z" transform="translate(-166.01 -216.5)"/><path class="cls-109" d="M290.94,481.74l7.21-.09c.8.65.21,1.18-.14,1.73-3,4-7.35,4.24-11.82,4-5.18-.39-10.34-.25-15.28,1.56-8.34,3-16.42,1.08-24.52-1a49.82,49.82,0,0,0-7.78-1.7,20,20,0,0,1-4.59-1.15c-2.69-1.28-5.61-2.25-7.07-5.21q0-.42.08-.83c4.4-.85,8.74-.1,13,.66,5.69,1,11.33,2.32,17.07,3.07,2,.82,3.89.32,5.82-.21C272.23,480,281.55,479.44,290.94,481.74Z" transform="translate(-166.01 -216.5)"/><path class="cls-110" d="M256.78,484,227,479.07c-.88-.42-2.28.2-2.64-1.28,3.14.56,6.86,1.42,9.31-.16,9.21-5.93,17.08-1,25.27,2.19,1,1.07,2.15,2.21,1.21,3.73C259.4,484.84,258,484.46,256.78,484Z" transform="translate(-166.01 -216.5)"/><path class="cls-111" d="M230,472.86l-5.05,2c-1.91-.31-4,.76-5.75-.78,2.33-2.41,4.68-4.79,7.81-6.19l2.88-.07c1.76-.39,3.71-1.49,4.64,1.24C234.37,471.94,231.78,471.9,230,472.86Z" transform="translate(-166.01 -216.5)"/><path class="cls-112" d="M227,479.91l7.14,4.1c3.4,4.53,3.67,7,1.06,9.73-2.38-2.5-3.48-6.18-7-7.61.16-2.11-1.1-3.63-2.15-5.23Z" transform="translate(-166.01 -216.5)"/><path class="cls-113" d="M285.94,496.78a.86.86,0,0,1-.76.25c-7.23.42-14.52,1.34-21.31-2.35a1.86,1.86,0,0,1,.85-2.17c6.48-3.34,12.94-6.81,20.66-5.59C286.76,490.14,288,493.37,285.94,496.78Z" transform="translate(-166.01 -216.5)"/><path class="cls-114" d="M264,493.86c6.86,2.36,14.15,1.92,21.18,3.17q-.11.36-.23.71c-7.64.92-15.09,3.8-23,2.14a4.77,4.77,0,0,1-.4-5.85A1.77,1.77,0,0,1,264,493.86Z" transform="translate(-166.01 -216.5)"/><path class="cls-115" d="M285.94,496.78l-1-9.83a1.24,1.24,0,0,1,.85-.78c4.22-.3,8.6.12,12.22-2.78A56.61,56.61,0,0,1,285.94,496.78Z" transform="translate(-166.01 -216.5)"/><path class="cls-116" d="M196,395l-2.89-.2-2.27-2h0a31.52,31.52,0,0,1,12.65-11c3.18-.26,6.26-.13,8.73,2.28-.74,4.31-5.07,5.24-7.51,8C202.11,394,199.7,396.45,196,395Z" transform="translate(-166.01 -216.5)"/><path class="cls-117" d="M262.13,494l-.15,5.86c-4.65,0-9.31,0-14,.13-1.55,0-3.48-.62-4.11,1.72l-6.86-5.83c4.66-2.6,9.87-2.1,14.9-2.49,2.3-.18,4.61,0,6.87-.63A3.6,3.6,0,0,1,262.13,494Z" transform="translate(-166.01 -216.5)"/><path class="cls-118" d="M259,493.88a121.79,121.79,0,0,1-22,2,3,3,0,0,1-1.89-2.17c1.93-3.49-1-6.45-1.06-9.73l3.9,1c6.31,1.76,12.26,4.53,18.51,6.48C257.65,491.82,259.22,492,259,493.88Z" transform="translate(-166.01 -216.5)"/><path class="cls-119" d="M346.14,330.85q0,1-.06,1.94c.78,7.61,1.41,15.23,2.41,22.81a53.61,53.61,0,0,1,.47,6.33c-.3.14-.66.36-.93.25-8.23-3.35-15.55-8.23-22.55-13.6-.5-.38-.58-1.16-.73-1.81,0-5.57-1-11.18.67-16.68a5.13,5.13,0,0,1,5-1.5c5.16.77,10.49.47,15.48,2.38Z" transform="translate(-166.01 -216.5)"/><path class="cls-120" d="M357,404.87c-.42.6-1.05,1-1.67.58-6.5-4.2-13-8.46-19.46-12.69-.35-4.63,3.58-7.24,5.16-11,.42-.79.82-1.59,1.16-2.42,1.42-2.43,1-5.24,1.56-7.85,2.7-1.89,1.48-6.46,5.2-7.65,3.08,11.41,4.5,23.15,7,34.68C356.42,400.66,356.69,402.77,357,404.87Z" transform="translate(-166.01 -216.5)"/><path class="cls-121" d="M349,363.89c-2.35,2.24-.28,7.23-5,8-2,.93-3.4-.54-4.91-1.38-4.85-2.7-9.28-6.13-14.32-8.51a6.62,6.62,0,0,1-3.19-2.93,4,4,0,0,1-.16-1.45c.94-3.22,1.57-6.55,3.25-9.52a1.25,1.25,0,0,1,1.33-.2l22.94,14Q349,362.91,349,363.89Z" transform="translate(-166.01 -216.5)"/><path class="cls-122" d="M330,420.9c-7.56-2.18-15.33-3.14-23.1-4.08,1.17-4,5-5.49,7.72-8,4.53-4.15,9.45-7.85,14.07-11.89,1.25-1.1,2.5-2.24,4.37-2,1.63-.74,2.2,0,1.88,1.52C333.19,404.57,332.69,413,330,420.9Z" transform="translate(-166.01 -216.5)"/><path class="cls-123" d="M333.09,394.93l-26.16,21.89.06,0c-1.7.49-2.19-.68-2.64-1.91-.73-4.36-2.46-8.4-3.95-12.53-.68-1.89-2-3.9,0-5.87a3.43,3.43,0,0,1,2.43-.3c6.88,2.09,13.47.56,20-1.55,3.42-.19,6.62-2.94,10.23-.89Z" transform="translate(-166.01 -216.5)"/><path class="cls-124" d="M333,393.79l-10.16,1.92c-.77-3.48,1.58-5.27,3.84-7.12a5,5,0,0,1,3.49.54c1.39.81,3.1,1.24,3.73,3Z" transform="translate(-166.01 -216.5)"/><path class="cls-125" d="M333.92,392.13l-4.08-2c.94-2.1,3.22-2.55,4.77-3.91,2.75-1,3.86-4.82,7.46-4.33l-6.16,10.86Z" transform="translate(-166.01 -216.5)"/><path class="cls-126" d="M236,295.8c2.78,0,3.78,4,7,3-1.73,1.44-1.21,2.58.3,3.88C247,306,249.94,310,253,313.91a2.71,2.71,0,0,1,.13,3.28c-3.52,6-6,12.62-10.68,18a3.49,3.49,0,0,1-1.42.4c-5.68-2.1-8.08-7.62-11.71-11.74-2.35-2.67-6.3-4.52-6.34-8.93q0-.49,0-1c0-3.94,3.45-5.73,5.18-8.6s6.11-4.54,4.65-9.09C233.73,294.93,234.82,295,236,295.8Z" transform="translate(-166.01 -216.5)"/><path class="cls-127" d="M223,314.88c6.17,6.5,11.25,14,17.94,20,.91,2.8-.12,3.77-2.91,3.07-1.61-3.13-4.63-1.28-6.66-1.34-9.75-.31-19.52.1-29.29.26a3.85,3.85,0,0,1,1.42-3c5.28-5.37,10.81-10.5,15.49-16.44C220,316.2,221.12,314.88,223,314.88Z" transform="translate(-166.01 -216.5)"/><path class="cls-128" d="M232.88,296.83c3.13,0,3.45,1,1.37,3.37-3.87,4.46-7.52,9.12-11.25,13.69-6.09-5.25-10.95-11.58-15.88-17.85l-.12-.25c2.37-1.75,5.11-2,7.92-2,4.72,1.21,9.39,2.74,14.41,1.84A3.67,3.67,0,0,1,232.88,296.83Z" transform="translate(-166.01 -216.5)"/><path class="cls-129" d="M222,352.89q0-.48,0-1,.48,0,1,0l.65.3c11.23,10.23,22.79,20.11,33.6,30.81,1.36,1.35,4.33,2.57,2.23,5.53-7,.19-13.42-2-19.83-4.31-.82-1.4-3.13-.47-3.66-2.34-2.05-4-6.51-5.12-9.64-7.83-1.35-1.17-2.87-2.14-4.32-3.21Q222,361.86,222,352.89Z" transform="translate(-166.01 -216.5)"/><path class="cls-130" d="M236,381.86l3,1c.48,1.85-.66,2.71-2.07,3.42-2.37.22-4.77-.32-7.13.28a8.49,8.49,0,0,1-1.49,0c-5-.45-10-1.72-15-1.19a1.3,1.3,0,0,1-1.15-.89,25.76,25.76,0,0,0-9.12-1.64c1.05-4.09,5.35-3.82,7.91-5.89,6.57,1.42,13.15,2.76,19.69,4.3A18.52,18.52,0,0,0,236,381.86Z" transform="translate(-166.01 -216.5)"/><path class="cls-131" d="M210.92,377c-1.57,3.4-5.65,3.43-7.91,5.89l-12.22,9.91c.77-5.77,2.69-11.25,4.27-16.81Z" transform="translate(-166.01 -216.5)"/><path class="cls-132" d="M345.87,331c-4.06,1.45-8.07-.19-12.06-.48-2.58-.19-5.2-.49-7.82-.6-2.65-5.51-2.18-28.34.68-33.38,1.57-.33,2.45.65,3.29,1.72,1.53,1.93,13.27,26.27,14,29.11.32-2.24-1.71-5.15,1.84-6.46Z" transform="translate(-166.01 -216.5)"/><path class="cls-133" d="M345.85,320.88c-1.76,2.44,0,5.44-1.48,8.63L328,296.92c-2.1-1.54-.84-2.6.52-3.65.79-.46,1.58-.92,2.51-.35l14.07,9.94,1,1Q345.94,312.39,345.85,320.88Z" transform="translate(-166.01 -216.5)"/><path class="cls-134" d="M203,262.88c1.75-1.45,4-1.27,6-2,4.66-1.68,9.86-1.86,14-5,1.57,2.78.16,5.61.12,8.41a7.42,7.42,0,0,1-1.94,3.25c-.88.86-1.69,1.89-3.17,1.36-5.07-2.56-10,.35-14.95.55-1.41.06-2.79.88-4.28-.06.67-2.38,2.92-3,4.51-4.36C204.12,264.31,205.44,263.26,203,262.88Z" transform="translate(-166.01 -216.5)"/><path class="cls-135" d="M222,264.89a24.58,24.58,0,0,1,1-9q0-1.48,0-3l11,1C232.16,259.92,227.58,262.95,222,264.89Z" transform="translate(-166.01 -216.5)"/><path class="cls-136" d="M222,264.89c4.15-3.5,8.88-6.37,12-11h1c.56.79,1.19,1.54,1.68,2.37,4,6.66,4,6.64-3.21,10.42-3.19,1.68-6.32,3.47-9.47,5.21-2.72-.56-3.41-2.74-4-5Z" transform="translate(-166.01 -216.5)"/><path class="cls-137" d="M238,338c1.8-.24,2.87-1.17,2.91-3.07l1,0a3.53,3.53,0,0,1,1.17.87c3.62,5.12,8.07,9.56,11.9,14.49,1.29,1.66,3.61,3.31,1.75,6-4.23,2.19-8.5.11-12.73,0-5.63-.18-11.16-1.65-16.81-1.93a4.78,4.78,0,0,1-4.16-2.33l-.08-.1C227.62,346.83,233.85,343.52,238,338Z" transform="translate(-166.01 -216.5)"/><path class="cls-138" d="M220,266.89l4,5q0,6,0,12c-.18,2.13-1.5,1.07-2.29.68a23.79,23.79,0,0,1-6.44-5.07l-.28-.63c-.16-2.6-.38-5.14-4-5l7-5Z" transform="translate(-166.01 -216.5)"/><path class="cls-139" d="M215,294.91l-8,.88a2.73,2.73,0,0,0,0-.49c-1.42-7.47,1.42-12.86,8-16.43l0,0A17.84,17.84,0,0,1,215,294.91Z" transform="translate(-166.01 -216.5)"/><path class="cls-140" d="M272,331.88q9-16.47,18-32.95a3.7,3.7,0,0,1,2.1-2c3.65,1.25,5.59,4.54,8.19,7,4.44,4.21,8.66,8.65,13.11,12.86-.09,5.58-3.67,9.59-6.34,14a6.64,6.64,0,0,1-3,1.32c-8.31.52-16.58,1.38-24.87,2.08C276.69,334.46,273.36,335.69,272,331.88Z" transform="translate(-166.01 -216.5)"/><path class="cls-141" d="M313,316.93c-3.56-.74-5.19-3.91-7.5-6.15-4.61-4.47-9-9.19-13.43-13.81a2.54,2.54,0,0,0,0-.84l-.13-.29c6.28-5.85,13.87-6.85,22-5.93,2.7,1.84,5.8,2.55,9,3.12,4.3.89,3.46,3.9,2.13,6.34-3.28,6-6.3,12.22-10.63,17.62A1.16,1.16,0,0,1,313,316.93Z" transform="translate(-166.01 -216.5)"/><path class="cls-142" d="M257.05,354.85c-4.52-6.71-11-11.85-15-19,1.13-1,2.32-2,3.85-2.11,8.07-.46,16-2.09,24.15-1.91h1a2.62,2.62,0,0,1,.6,2c-3.64,7.52-6.43,15.52-12.22,21.85A1.54,1.54,0,0,1,257.05,354.85Z" transform="translate(-166.01 -216.5)"/><path class="cls-143" d="M271,333.89l0-2h1c2.68,2,5.77,1.16,8.56.8A168,168,0,0,1,305,330.9a1.89,1.89,0,0,1,.45,2.28c-3.13,5.59-5.52,11.64-10.22,16.24a4.15,4.15,0,0,1-4.2-.52C284.2,344.09,277.26,339.44,271,333.89Z" transform="translate(-166.01 -216.5)"/><path class="cls-144" d="M270,331.88c-5.36,3.23-11.53,1.72-17.27,2.83-3.46.67-7.18.47-10.73,1.19l-.06-1c3.51-7.08,8.33-13.47,11.07-21l.9-.06Z" transform="translate(-166.01 -216.5)"/><path class="cls-145" d="M246,285.89c-3.89,2.38-5,7.9-10,9-3.89-1.32-6.72-4.22-9.79-6.73-1.23-1-2.55-2.36-1.21-4.27q14.32-6.15,28.64-12.3a21.09,21.09,0,0,1,2.35-.71c-.75,4.14-3.88,6.78-6.36,9.77A21,21,0,0,0,246,285.89Z" transform="translate(-166.01 -216.5)"/><path class="cls-146" d="M225,283.89c.75,4.29,5,5.19,7.59,7.68,1.14,1.09,2.67,1.78,3.41,3.31q0,.46,0,.92l-3.12,1c-6.08.51-12.18,1.14-17.88-1.92q0-8,0-16c3.77.26,4.84,5.4,9,5Z" transform="translate(-166.01 -216.5)"/><path class="cls-147" d="M313.95,291c-6.4-1.41-12.12,1.25-18,3a34.8,34.8,0,0,0-4,1.77c.41-3.5,3-6.33,3-10,6.37-2.93,13.22-2.71,20-3a3,3,0,0,1,2.35-.45c.92.06,2.16-.44,2.64.7s-.42,2.23-1.29,2.93A33.5,33.5,0,0,0,313.95,291Z" transform="translate(-166.01 -216.5)"/><path class="cls-148" d="M313.95,291c-1.43-4.71,4.49-4.39,5.37-7.57-1.45-1-2.95-.36-4.33-.59,1.42-1.59,3.32-.75,5-1,3.67.86,5.41,4.05,7.65,6.56,1.08,1.2,1.79,2.73,3.35,3.48q0,.52,0,1l-2,1c-2,1-3.94.58-5.93.16C319.9,293.44,316.33,294,313.95,291Z" transform="translate(-166.01 -216.5)"/><path class="cls-149" d="M304.87,415.08l2.13,1.75c-4,7.18-10.09,13.12-12.91,21l-.17,0c-4.28-1.15-8-3.77-12.42-4.64-.69-.14-.77-1-.42-1.65,2.72-.89,3.75-2.28,2.94-5.48-1.67-6.56-2.91-13.24-4-19.93-.42-2.48-1.64-5.14.21-7.62,1.72-1,3.26-.27,4.63.7,6.33,4.52,12.64,9.06,18.9,13.69A2.76,2.76,0,0,1,304.87,415.08Z" transform="translate(-166.01 -216.5)"/><path class="cls-150" d="M280.9,432c4.67,1.25,9.74,1.64,13,6q0,3,.1,6c-.29,1.16.19,2.81-1.84,2.84-3.73-.8-5.26-4.35-8-6.37-1.62-1.67-3.75-2.77-5.3-4.5-1.09-1.22-3.09-2.33-1.47-4.51A2.77,2.77,0,0,1,280.9,432Z" transform="translate(-166.01 -216.5)"/><path class="cls-151" d="M291,448.86c-2.86,4.16-7.47,6.31-11,9.63-1.43,1.33-2.66,2.89-4,4.35-3,2.41-5.58.62-8.07-1-1.48-1-2.51-2.7-4.58-2.68a3.84,3.84,0,0,1-1.55-4.56,40.57,40.57,0,0,1,14.72-7C281.25,448.79,286.22,447.76,291,448.86Z" transform="translate(-166.01 -216.5)"/><path class="cls-152" d="M291,448.86c-5.07,2.12-10.13.52-15.19-.07.84-4.39,4.67-2.52,7.45-3.54-1.3-1.36-3.54-.92-4.49-2.54,1.18-3,3.35-3.86,6.34-3l7.07,7Z" transform="translate(-166.01 -216.5)"/><path class="cls-153" d="M285,472.85l-3.08-1c-2.33-1.17-4.53-2.55-5.7-5-.88-1.81-.56-3,1.82-2,4.32,1.63,9.6.8,12.91,5C289.79,472.45,286.74,471.3,285,472.85Z" transform="translate(-166.01 -216.5)"/><path class="cls-154" d="M278.07,464.83c-1.07.17-2,.47-.89,1.72,1.56,1.78,3.18,3.52,4.77,5.28-4.32-.68-8.76-.51-13-2,1-5.1,2.4-6.28,7-6.08Z" transform="translate(-166.01 -216.5)"/><path class="cls-155" d="M276,463.79c-4.16-.07-4.77,4-7,6.08a7.55,7.55,0,0,1-.9.14c-2.78-3.19-4.66-6.71-4.11-11.12,1.3-3,2.28-.17,2.78.38,2.53,2.74,5.48,4.09,9.21,3.58Q276,463.32,276,463.79Z" transform="translate(-166.01 -216.5)"/><path class="cls-156" d="M285,472.85c.91-3.13,4-1.9,5.95-3,2,0,4-2.21,6,0-1.5.07-3.28,0-1.82,2.3.84,1.36,1.82,2.63,2.74,3.94Z" transform="translate(-166.01 -216.5)"/><path class="cls-157" d="M215.06,417.1c-.77-6.37,1.78-11.51,5.92-16.07,2.44-2.81,6-2.61,9.19-3.41,5,0,8.87-2.24,11.8-6.23a3.21,3.21,0,0,1,1.23-.76,2.15,2.15,0,0,1,1.69,1.28c.77,2.12,1.58,4.23.84,6.55a2.69,2.69,0,0,1-1.71,1.37Z" transform="translate(-166.01 -216.5)"/><path class="cls-158" d="M240.11,430.79c-4.18-.59-4.78-2.52-3.23-6.43,3-7.69,5.49-15.61,8.19-23.44,2-.09,2.37,1.6,2.8,2.9,1.56,4.67,3.07,9.37,3.33,14.35a6.71,6.71,0,0,1-.3,1.53c-2.09,4.3-4.19,8.61-8,11.77A2.38,2.38,0,0,1,240.11,430.79Z" transform="translate(-166.01 -216.5)"/><path class="cls-159" d="M250,418.93c-.79-6.24-2.1-12.34-5-18L244,399.82l1-.94a22.51,22.51,0,0,1,9.78-7.3,2.41,2.41,0,0,1,1.08,1.16c.47,8.6-2,16.72-4,24.93A1.62,1.62,0,0,1,250,418.93Z" transform="translate(-166.01 -216.5)"/><path class="cls-160" d="M240.11,430.79l2.83.06c1-.38,1.15.23,1.11,1-2.65,3.14-4.31,7-7.38,9.84l-.67.17c-2.4-1.55-2.87-3.82-2.3-6.41.3-1.34.57-2.6-.69-3.61C235.14,430,237.77,431.36,240.11,430.79Z" transform="translate(-166.01 -216.5)"/><path class="cls-161" d="M236,448.94c2.61-.57,5.51,1.1,7.93-1,4.59.78,7.4,4.57,11.22,6.65a2,2,0,0,1-.48,2c-3,1.93-4.34,6.23-8.73,6.27-.91-3.85-3.86-6.22-6.38-8.92C238.19,452.44,236.12,451.37,236,448.94Z" transform="translate(-166.01 -216.5)"/><path class="cls-162" d="M246,462.85l8-7a13.47,13.47,0,0,1-5,13.83l-2,.06c-2.56-1.55-6.12-1.07-8-3.95Z" transform="translate(-166.01 -216.5)"/><path class="cls-163" d="M238.94,465.83c2.83,1,6.12,1.06,8,3.95-5.8.19-10.87,4.4-16.94,3.09l4-3c1.09-1.06.81-2.07-.1-3.06C235.36,465.39,237.23,466,238.94,465.83Z" transform="translate(-166.01 -216.5)"/><path class="cls-164" d="M233.89,466.81c.78.32,2.22-.46,2.28.85.06,1.13-1.19,1.72-2.18,2.21-.36-2.69-2.52-1.75-4.08-2C231,466.61,232.51,467,233.89,466.81Z" transform="translate(-166.01 -216.5)"/><path class="cls-165" d="M231,398.88,221,401c-4.49.09-8.49-1.72-12.56-3.23-2.54-1.59-4.71-3.41-4.3-6.85l8-6.44a4.19,4.19,0,0,0,.77.21c1.4.94,1.32,2.56,1.79,3.92a6.38,6.38,0,0,0,5.2,4.66c2.82.45,4.6-1.19,6.22-3.17,1.13-1.38,1.34-3.4,3.08-4.34a1.18,1.18,0,0,0,.69,0c3,1,4.67,3.27,5.61,6.18A7.93,7.93,0,0,1,231,398.88Z" transform="translate(-166.01 -216.5)"/><path class="cls-166" d="M204.12,390.95l4.3,6.85A58.05,58.05,0,0,1,196,395C199.74,395.77,201.41,392.3,204.12,390.95Z" transform="translate(-166.01 -216.5)"/><path class="cls-167" d="M255,454.89c-4.62-.81-7.48-4.42-11-6.94l-5.88-4.14c-.29-1.44.82-1.6,1.75-1.93,5.65,0,8.77,4.73,13.25,6.92a7.34,7.34,0,0,0,2,.63c2.77.06,5.55.38,8.28-.41A16.31,16.31,0,0,0,267,447c3.79-2,7.21-5.2,12.07-4.12,2.87.23,6.1-.26,7.35,3.62-3.43,1.51-7.84-1.69-10.58,2.34L262.05,455a4.08,4.08,0,0,1-3.12,1.2A4.75,4.75,0,0,1,255,454.89Z" transform="translate(-166.01 -216.5)"/><path class="cls-168" d="M240.15,442.7l-2.08,1.11a2.41,2.41,0,0,1-2.08-1.93l0,.06C237.62,441,239.19,440.24,240.15,442.7Z" transform="translate(-166.01 -216.5)"/><path class="cls-169" d="M256.78,484c3.82.23,2.59-2.2,2.2-4.18,8.79-5.45,17.61-4.82,26.51-.25,1.73.89,3.63,1.46,5.45,2.17-10.23,0-20.47-.18-30.41,3A3.83,3.83,0,0,1,256.78,484Z" transform="translate(-166.01 -216.5)"/><path class="cls-170" d="M255,454.89l4,0c1.95,2.22,1.51,4.95,1.52,7.54,0,3.3,0,6.59,1.67,9.58-2.56,2.13-4.85.34-7.23-.46-2-.66-4-1.22-6-1.82,2.92-4.16,4-9,5-13.83Z" transform="translate(-166.01 -216.5)"/><path class="cls-171" d="M262.2,472c-2.64.08-3.3-1.38-3.23-3.77.12-4.45,0-8.9,0-13.36l3,.13,1.93,3.89L268.09,470A15.39,15.39,0,0,1,262.2,472Z" transform="translate(-166.01 -216.5)"/><path class="cls-172" d="M259,493.88c-7.14-2.65-14.42-5-21-8.91,4.37,0,8.56,1.27,12.62,2.49a34.4,34.4,0,0,0,20.91-.26,30.63,30.63,0,0,1,14.25-1l-.86.78c-7.49.75-14.12,4.12-20.93,6.92l-1.88.17Z" transform="translate(-166.01 -216.5)"/><path class="cls-173" d="M323.07,294.07l5.93-.16c-.69.89-2,1.56-1,3-2.39,2-1.88,4.88-1.91,7.47-.11,8.49-.05,17-.06,25.49q0,9,0,18h-1l-.62-.61c-1.84-5.26-.56-10.7-.93-16,.4-3.06-2.38-3.9-3.88-5.69-2.23-2.65-6.7-3.93-5.62-8.72,3.51-6.3,6.88-12.68,10.59-18.86C326,295.58,324.71,294.93,323.07,294.07Z" transform="translate(-166.01 -216.5)"/><path class="cls-174" d="M342.08,381.91c-2.7,1.05-3.68,4.42-6.73,5a5.81,5.81,0,0,1-3.2-1.12c-2.35-1.79-5.13-2.91-7.4-4.83-.52-2,.68-3.73,1.06-5.6s.94-3.56-1.49-4.36a2.53,2.53,0,0,1-1.54-1.46c1-2.18,2.87-1.82,4.67-1.79a38.5,38.5,0,0,1,15.62,12.18Z" transform="translate(-166.01 -216.5)"/><path class="cls-175" d="M343.06,379.92c-5.48-3.09-9.49-8.19-15.13-11.07-1.66-2.42-3.36-4.83-2.95-8,6.82,2.87,12.46,7.76,19,11C346,374.83,344.46,377.37,343.06,379.92Z" transform="translate(-166.01 -216.5)"/><path class="cls-176" d="M322,357.84q0,.37,0,.74c-.84,2.19-3,2.41-4.77,3.12q-12.87,5.12-25.82,10c-2.79,1.07-5.48,2.31-7.43,4.72-5.26,4.64-11,8.43-17.91,10.17a2.19,2.19,0,0,1-1.56-1.46c0-3.23,2.71-4.84,4.44-6.91,7.33-8.77,14.69-17.51,22-26.3a5.84,5.84,0,0,1,2.33-1.81,23,23,0,0,1,3.07-.38C305.07,351.92,313.86,353.84,322,357.84Z" transform="translate(-166.01 -216.5)"/><path class="cls-177" d="M282.8,376.18a16.27,16.27,0,0,1,8-5.67c10.46-3.85,20.83-7.94,31.24-11.93l3,2.26c1.37,2.53,3.29,4.86,2.95,8-1.74.16-3.58-.29-5.14.89-2,2.43-5,1.66-7.41,1.87-10.27.88-20,4.14-30,6.34C284.25,377.81,283.1,377.63,282.8,376.18Z" transform="translate(-166.01 -216.5)"/><path class="cls-178" d="M322,357.84c-9-1.05-17.17-5.19-26-7a1.1,1.1,0,0,1,.4-1.57c8.26-3,17-1.56,25.46-2.72a4.11,4.11,0,0,1,3.12,1.31h0A19.08,19.08,0,0,1,322,357.84Z" transform="translate(-166.01 -216.5)"/><path class="cls-165" d="M326.92,389l-4.06,6.68c-7.41,4.16-15.09,3.42-22.85,1.29l-.69-.17a8.65,8.65,0,0,1-3.75-7.24c1.35-2.88,2.73-5.74,6.55-5.88,1.05.9,1.33,2.28,2,3.4,3.57,5.72,8.11,5.78,11.95.14,1-1.75.27-4.69,3.41-5C322.78,383.66,325.86,385.23,326.92,389Z" transform="translate(-166.01 -216.5)"/><path class="cls-179" d="M304.87,415.08,281.3,398.66a1.84,1.84,0,0,1-1.67-.9,3,3,0,0,1,0-1.34,60.36,60.36,0,0,1,2.8-6.16,2.24,2.24,0,0,1,2.57-.77,4.56,4.56,0,0,1,1.15.88c2.85,3.1,6.08,5.42,10.57,5.31a4.68,4.68,0,0,1,3.13,1.23l.16.08c1.59,4.52,3.29,9,4.7,13.59C305.13,412,306.79,413.54,304.87,415.08Z" transform="translate(-166.01 -216.5)"/><path class="cls-180" d="M326.92,389l-7.12-6c2.6-2.17,5-.06,7.53.28,2,.27,3.5,2,5.63,1.67l2.38,2a9.19,9.19,0,0,1-5.49,3.24Z" transform="translate(-166.01 -216.5)"/><path class="cls-181" d="M257.05,354.85l1.9,1.07.63.59c2.3,10.25,3,20.68,3.34,31.15a2.92,2.92,0,0,1-1,1.32c-1.06.36-1.55-.25-1.88-1.12-6.88-8.28-15.59-14.65-23.2-22.16-4.61-4.55-10.53-7.82-13.76-13.74,7.83,1,15.64,2.3,23.5,2.76C250,354.93,253.57,357.65,257.05,354.85Z" transform="translate(-166.01 -216.5)"/><path class="cls-182" d="M260,387.87l.93,1c-1.17,2.32-2.76,3.9-5.64,3.2l-1.32-.13c-3.33,1.84-6.66,2.4-10,0l-1.09-.92c-3.31-.22-4.87-2.42-5.89-5.23l2-2.85A139.84,139.84,0,0,0,260,387.87Z" transform="translate(-166.01 -216.5)"/><path class="cls-183" d="M229.19,385.79c-.41,8-7.6,11.78-13.79,7.07-2.87-2.19-1.85-5.37-2.49-8.13C218.47,382.94,223.82,384.57,229.19,385.79Z" transform="translate(-166.01 -216.5)"/><path class="cls-184" d="M237,385.75l5.89,5.23q0,.44.05.87c-2.67,1.62-5.35,2.29-8.07.11l-5-6.21C232.26,384.17,234.64,385,237,385.75Z" transform="translate(-166.01 -216.5)"/><path class="cls-185" d="M325,347.89l-29,2c-1.05.38-1.24-.1-1-1,3.31-6,7.53-11.52,10-18l2-1a22,22,0,0,1,18,0Z" transform="translate(-166.01 -216.5)"/><path class="cls-186" d="M325,329.88H307c1.09-4.74,5-8.16,6-13l1-.1c1.29,4.18,4.9,6.34,7.95,8.94C323.29,327,324.9,327.79,325,329.88Z" transform="translate(-166.01 -216.5)"/><path class="cls-187" d="M295,348.89l1,1q0,.49,0,1l-3.06,0c-3.25,2.26-7.07,2.59-10.81,3.21-5.37.88-10.75,1.76-16.09,2.79-2.44.47-4.93.85-7.07-1l0,0,12-22c7.54,2.9,12.8,9.18,19.58,13.22C292,348,293.19,349.09,295,348.89Z" transform="translate(-166.01 -216.5)"/><path class="cls-188" d="M280.14,397.71l1.16.95c-1.82,3.75.25,7.26.78,10.83.85,5.69,1.64,11.48,3.42,16.92,1.69,5.18-.26,6-4.6,5.55l-4-.07a1.33,1.33,0,0,1-1.33.12c-2.67-2.5-3.78-6-5.61-9a7.63,7.63,0,0,1-.57-4.38c2.63-5.69,4.72-11.61,7.43-17.27C277.51,399.88,277.6,397.6,280.14,397.71Z" transform="translate(-166.01 -216.5)"/><path class="cls-189" d="M276,431.89q.45,0,.89,0c2,3.42,5.84,4.84,8.23,7.82a13.25,13.25,0,0,0-6.07,3.13,54.48,54.48,0,0,0-11.67,5.29c-3.42-.77-1.15-2.7-.62-3.93,1.62-3.78,4.77-6.76,5.73-10.91C273.28,431.89,274.15,430.69,276,431.89Z" transform="translate(-166.01 -216.5)"/><path class="cls-190" d="M234.89,392l8.07-.11c-2.63,4.61-6.67,6.84-11.91,7Z" transform="translate(-166.01 -216.5)"/><path class="cls-191" d="M244,391.9h10c-2.1,3.48-5.62,5.12-9,7Z" transform="translate(-166.01 -216.5)"/><path class="cls-192" d="M255.31,392l5.64-3.2a4.51,4.51,0,0,0,1-.06l.65.62c1.71,5.08.17,10.22-.23,15.21-.67,8.38.08,16.93-2.32,25.14-1.82,2.94-3.15.57-4.07-.64a60.23,60.23,0,0,1-5.88-9.19q0-.49-.06-1C252.85,410.17,253.81,401,255.31,392Z" transform="translate(-166.01 -216.5)"/><path class="cls-193" d="M250.08,419.91c4.73,2.23,5.23,7.86,8.84,11a1.91,1.91,0,0,1,.61,1.24c-.85,3-3,4.77-5.59,6.14-3.87-.8-6.69-3.36-9.61-5.76l-.3-.65-1.09-1Z" transform="translate(-166.01 -216.5)"/><path class="cls-194" d="M240.15,442.7c-1.21-1.17-2.7-.78-4.13-.76,2.45-3.54,3.46-8.21,8-10.08l0,0c4,5.59,7.63,11.33,8.93,18.22C248.33,448.23,245.41,443.45,240.15,442.7Z" transform="translate(-166.01 -216.5)"/><path class="cls-195" d="M252.94,450.1c-3.26-5.94-6.74-11.77-8.93-18.22,3.86,1.14,6.56,4.28,10.14,5.91,2.68,0,4.14,1.75,5.42,3.77a3.86,3.86,0,0,1,0,1.39c-1.32,2.94-2.84,5.73-5.57,7.65Z" transform="translate(-166.01 -216.5)"/><path class="cls-196" d="M259,442.84l0-1C260.09,439,263,438,264.8,436c2.55-1.16,4.82-3.31,8-2.29,2.44,2.33-.8,3.28-1.27,4.88-1,3.33-5.22,5.27-4.15,9.54a5.11,5.11,0,0,1-3.16,2C260.23,449.3,260.15,445.69,259,442.84Z" transform="translate(-166.01 -216.5)"/><path class="cls-197" d="M259,442.84c2.9,1.59,2.69,5.4,5.2,7.28-3.35,1.23-6.79.6-10.2.48C255,447.6,257.07,445.25,259,442.84Z" transform="translate(-166.01 -216.5)"/><path class="cls-198" d="M285,377a129.44,129.44,0,0,1,37.82-7.27l2.15.21c-.15,2.59-2.48,2.28-4,2.87-5.56,2.14-11.53,3.23-16.62,6.58a7,7,0,0,1-2.19.71,25.51,25.51,0,0,0-5.3.92,14,14,0,0,1-3.21.19c-2.87-.49-5.77-.83-8.65-1.26-.95-.14-2.07-.6-1.95-1.75C283.11,377.35,284.32,377.42,285,377Z" transform="translate(-166.01 -216.5)"/><path class="cls-199" d="M302,378.91l2-.17a10.66,10.66,0,0,1,4.06-1.77c1.7-.34,3.44-.53,5.12-1A17,17,0,0,1,325,380.56c3.2.46,5.38,2.76,7.93,4.39-2.68,1.83-4.95-.43-7.4-.77-1.94-.26-3.68-1.55-5.76-1.19-3.45.44-.92,3.88-2.62,5.2-1.81-6.21-6.78-4.46-11.08-4.4-1.39-.56-2.4-1.88-4-2a3.4,3.4,0,0,1-1.15-.71C300.39,379.94,301.25,379.45,302,378.91Z" transform="translate(-166.01 -216.5)"/><path class="cls-200" d="M307.92,377.86l-3.93.88c1.2-2.92,4.22-2.86,6.53-3.78,4.73-1.88,9.61-3.37,14.43-5,2.44-.24,3.52.85,2.78,3.22s-.94,5.25-2.71,7.39c-4.15-.75-7.61-3.77-12-3.69C311.48,378.08,309.45,376.69,307.92,377.86Z" transform="translate(-166.01 -216.5)"/><path class="cls-201" d="M259,355.9c10.2-.34,20-3.28,30.08-4.54l3.9-.46c-8.62,11.91-18.72,22.6-28,34-.57.9-.46,2-.95,3a4.12,4.12,0,0,1-.68,1.08,1.34,1.34,0,0,1-1.19.22l-.23-.38Z" transform="translate(-166.01 -216.5)"/><path class="cls-202" d="M285,377c-.27.7-2.42,2,.34,1.82,3-.18,5.8.85,8.72,1.09.15,1-.43,1.49-1.16,1.92-8.28,2.71-16.87,4.28-25.23,6.69a4.37,4.37,0,0,1-3.36-.18c-1.32-2.3.91-1.8,1.84-2.33,5.76-2.94,11.63-5.69,16.66-9.84Z" transform="translate(-166.01 -216.5)"/><path class="cls-203" d="M266.15,386l-2.06,1.89a.78.78,0,0,1-1,.13,3,3,0,0,1,1.95-3.15Z" transform="translate(-166.01 -216.5)"/><path class="cls-204" d="M305,382.88c1.31-.15,2.65-.2,3.93-.47,7.11-1.52,7.79-1.06,8.25,5.79-1.54,4.35-5.23,5.35-8.93,4.47-4.1-1-6.33-4.27-6.29-8.72a1,1,0,0,1,.17-1.39A2.23,2.23,0,0,1,305,382.88Z" transform="translate(-166.01 -216.5)"/><path class="cls-205" d="M302.12,383a3.22,3.22,0,0,1-.15.94c-2.92,1.06-3.74,4.17-5.86,6-3.53,2.61-7.21,3.24-11.11.84q0-.46,0-.91c.75-4.74,4.56-6.69,8.09-8.9l1-1.06,2.95,0c1.25.67,3-.5,4,1h1A1.57,1.57,0,0,1,302.12,383Z" transform="translate(-166.01 -216.5)"/><path class="cls-206" d="M285,390.78c3.77.58,7.39-.81,11.11-.84l3.75,7C293.82,397.48,288.5,396.32,285,390.78Z" transform="translate(-166.01 -216.5)"/><path class="cls-207" d="M280.14,397.71c-3.21,5.19-4.84,11.08-7.37,16.57-.74,1.61-1.22,3.43-2.75,4.6-2.17-2-2.27-4.74-2.42-7.36-.38-6.64-1.19-13.22-2-19.81,1-2.43,2.58-1.24,3.94-.61,2.78,1.28,5.64,2.38,8.43,3.63a3.23,3.23,0,0,1,2,2.2Z" transform="translate(-166.01 -216.5)"/><path class="cls-208" d="M293.07,381l-8.09,8.9a2.14,2.14,0,0,0-2,1c-1.9,1.81-4.38,1.3-6.64,1.68-4.25.3-7.83-3.09-12.19-2.19-.8-.11-1.41-.41-1.32-1.37a2.08,2.08,0,0,0,.19-1l1-.13C273.8,385.81,283.22,382.51,293.07,381Z" transform="translate(-166.01 -216.5)"/><path class="cls-209" d="M275.9,392c2.12-2,4.74-.7,7.1-1.08a11.13,11.13,0,0,1-3,6l-1.83-1.11C277,394.76,275.4,394,275.9,392Z" transform="translate(-166.01 -216.5)"/><path class="cls-210" d="M221.31,389.91a1.65,1.65,0,0,1-1.77-1.41c-.08-.91.65-1.45,1.59-1.49a1.47,1.47,0,0,1,1.71,1.39C222.91,389.37,222.31,389.91,221.31,389.91Z" transform="translate(-166.01 -216.5)"/><path class="cls-211" d="M262.85,389l1.12.7a1.65,1.65,0,0,1,2.1,1.16c3.08,4.71,1.54,10.25,2.66,15.33.91,4.12.89,8.45,1.28,12.69l1,4c-4.15,2.42-6.65,6.75-10.7,9.29a1.37,1.37,0,0,1-1.29-.26l-.12-1q1.62-20.87,3.24-41.75A3.38,3.38,0,0,1,262.85,389Z" transform="translate(-166.01 -216.5)"/><path class="cls-212" d="M260,431.88c2.68-2.84,5.39-5.65,8-8.54a2.2,2.2,0,0,1,3-.45l5,9c-1.52-.18-2.4.75-3.21,1.83l-7.69,3.41C262.32,436.42,259.83,435.44,260,431.88Z" transform="translate(-166.01 -216.5)"/><path class="cls-213" d="M260,431.88c1,2.39,3.6,3.32,5.12,5.25-1.59,2.12-3.85,3.38-6.07,4.69l-4.89-4,4.9-5.89Z" transform="translate(-166.01 -216.5)"/><path class="cls-214" d="M301,380.89c-1.39-.12-2.95.44-4-1a8.62,8.62,0,0,1,5-1Z" transform="translate(-166.01 -216.5)"/><path class="cls-214" d="M302.12,383l-.12-2.11c1,.67,4-1.68,3,2Z" transform="translate(-166.01 -216.5)"/><path class="cls-214" d="M307.92,377.86c1.51-1.27,3.34-.93,5.09-1C311.57,378.54,309.65,377.69,307.92,377.86Z" transform="translate(-166.01 -216.5)"/><path class="cls-215" d="M310.16,388.85c-.94-.12-1.59-.65-1.48-1.59a1.56,1.56,0,0,1,1.8-1.32c1,0,1.56.59,1.43,1.56A1.54,1.54,0,0,1,310.16,388.85Z" transform="translate(-166.01 -216.5)"/><path class="cls-216" d="M266.08,390.86,264,389.7c4.29-.91,8.12.6,11.93,2.26l2.24,3.86C273.75,395.06,270.09,392.52,266.08,390.86Z" transform="translate(-166.01 -216.5)"/></svg>