<svg id="Layer_1" data-name="Layer 1" xmlns="http://www.w3.org/2000/svg" viewBox="0 0 323.72 248.24"><defs><style>.cls-1{fill:#b88b5f;}.cls-2{fill:#312b1d;}.cls-3{fill:#b98b5f;}.cls-4{fill:#167ec2;}.cls-5{fill:#f0efef;}.cls-6{fill:#1f3243;}.cls-7{fill:#267ebe;}.cls-8{fill:#f1efee;}.cls-9{fill:#2d7fba;}.cls-10{fill:#2484c5;}.cls-11{fill:#328ac8;}.cls-12{fill:#2687c6;}.cls-13{fill:#b3805e;}.cls-14{fill:#edab33;}.cls-15{fill:#f2f2f2;}.cls-16{fill:#2686c6;}.cls-17{fill:#f0f0f0;}.cls-18{fill:#2e3d44;}.cls-19{fill:#dc6745;}.cls-20{fill:#2d8ac8;}.cls-21{fill:#107cc1;}.cls-22{fill:#0f7bc0;}.cls-23{fill:#f48167;}.cls-24{fill:#4783b3;}.cls-25{fill:#e3d3d3;}.cls-26{fill:#328cc9;}.cls-27{fill:#f3f4f4;}.cls-28{fill:#298ac9;}.cls-29{fill:#ed7540;}.cls-30{fill:#2e8bc9;}.cls-31{fill:#f3f3f3;}.cls-32{fill:#5d5247;}.cls-33{fill:#3a4951;}.cls-34{fill:#dc613d;}.cls-35{fill:#e08442;}.cls-36{fill:#f2684e;}.cls-37{fill:#f1f1f1;}.cls-38{fill:#f3f3f4;}.cls-39{fill:#f5f5f5;}.cls-40{fill:#f15e3c;}.cls-41{fill:#f5f6f6;}.cls-42{fill:#f37246;}.cls-43{fill:#f4f4f4;}.cls-44{fill:#e39889;}.cls-45{fill:#df664f;}.cls-46{fill:#dc9b33;}.cls-47{fill:#f6937c;}.cls-48{fill:#f15c33;}.cls-49{fill:#fdb731;}.cls-50{fill:#f5824a;}.cls-51{fill:#82bee0;}.cls-52{fill:#107bc0;}.cls-53{fill:#f3f2f2;}.cls-54{fill:#f9bd77;}.cls-55{fill:#e89848;}.cls-56{fill:#f3ab45;}.cls-57{fill:#f47b63;}.cls-58{fill:#f6907c;}.cls-59{fill:#ec693b;}.cls-60{fill:#2d8bc9;}.cls-61{fill:#db5c42;}.cls-62{fill:#bbdcee;}.cls-63{fill:#efa698;}.cls-64{fill:#2789c8;}.cls-65{fill:#f18167;}.cls-66{fill:#0f79bf;}.cls-67{fill:#f15737;}.cls-68{fill:#da604a;}.cls-69{fill:#f47962;}.cls-70{fill:#f47961;}.cls-71{fill:#f2863e;}.cls-72{fill:#f8ac86;}.cls-73{fill:#e87e43;}.cls-74{fill:#f26549;}.cls-75{fill:#f2684c;}.cls-76{fill:#3a93cc;}.cls-77{fill:#147cc1;}.cls-78{fill:#f15b31;}.cls-79{fill:#6c654a;}.cls-80{fill:#f16146;}.cls-81{fill:#e99a38;}.cls-82{fill:#f47a4b;}.cls-83{fill:#f37157;}.cls-84{fill:#f26344;}.cls-85{fill:#cfb365;}.cls-86{fill:#f26242;}.cls-87{fill:#dac2ab;}.cls-88{fill:#f36d52;}.cls-89{fill:#ef7d32;}.cls-90{fill:#1e3942;}.cls-91{fill:#ee6e35;}.cls-92{fill:#4699d0;}.cls-93{fill:#f68b40;}.cls-94{fill:#b2d6ec;}.cls-95{fill:#1680c4;}.cls-96{fill:#278cc9;}.cls-97{fill:#f37245;}.cls-98{fill:#f16044;}.cls-99{fill:#f36f54;}.cls-100{fill:#f47856;}.cls-101{fill:#ef5635;}.cls-102{fill:#f47431;}.cls-103{fill:#b2805d;}.cls-104{fill:#b5865e;}.cls-105{fill:#b3825e;}.cls-106{fill:#f5eee7;}.cls-107{fill:#333c44;}.cls-108{fill:#3a4746;}.cls-109{fill:#b4835d;}.cls-110{fill:#153443;}.cls-111{fill:#f4eee7;}.cls-112{fill:#f3e3e0;}.cls-113{fill:#f5856b;}.cls-114{fill:#d7d7dd;}.cls-115{fill:#f48369;}.cls-116{fill:#e9d7d7;}.cls-117{fill:#f5856e;}.cls-118{fill:#f16042;}.cls-119{fill:#d7e7f1;}.cls-120{fill:#d9e1eb;}.cls-121{fill:#fde1db;}.cls-122{fill:#c2e1f2;}.cls-123{fill:#f2e9e9;}.cls-124{fill:#e0d2d4;}.cls-125{fill:#f5f8fb;}.cls-126{fill:#e4e8ee;}.cls-127{fill:#d8eaf5;}.cls-128{fill:#fde4df;}.cls-129{fill:#9ecee9;}.cls-130{fill:#f2eaea;}.cls-131{fill:#a3d0ea;}.cls-132{fill:#b9dcf0;}.cls-133{fill:#fce5e1;}.cls-134{fill:#d89a32;}.cls-135{fill:#da8434;}.cls-136{fill:#5b88ac;}.cls-137{fill:#a9d1e9;}.cls-138{fill:#69b0db;}.cls-139{fill:#a9d2ea;}.cls-140{fill:#cfe6f3;}.cls-141{fill:#fde7e2;}.cls-142{fill:#f47d66;}.cls-143{fill:#f15c3e;}.cls-144{fill:#f79b88;}.cls-145{fill:#f15736;}</style></defs><title>westbrok3</title><path class="cls-1" d="M395.27,412c-12.84,4.14-20.25,15.57-30.66,23-6.54,4.67-12.83,9.26-20.94,10.89-6.39,1.28-10.4,5.73-12.39,11.76-2.38,7.24-4.4,14.6-6.58,21.9a29.55,29.55,0,0,1-12-10.52c-6.23-9-8.77-19.19-9.06-30-.06-2.26.8-5.33-3.07-5.67-1.31-.9-1.31-2-.51-3.23,6-1.5,10.46-5.8,15.22-9.17,7.78-5.5,16.41-6.95,25.33-7.86a13.21,13.21,0,0,0,7.32-2.53c2-1.54,4.19-2.73,6.14-4.28,9.18-7.32,21.16-9.84,29-20.19,7-9.19,17.68-15.52,26.61-23.26a72.37,72.37,0,0,0,12.73-14c1.84-2.72,2.48-5.17.69-8.68-2.05-4-2.84-8.77-3.67-13.29-.33-1.77.21-4.24,2.7-4.76s3.89-2.34,5.45-4.07c4.12-4.56,5.06-4.68,9.79-.62,2.18,1.87,3.11,1,4-1.06,2-4.75,4-9.52,6.08-14.22.62-1.38,1-3.7,3.3-2.81,2,.77,1.58,2.81,1.1,4.37-1.4,4.61-3,9.17-4.44,13.77a17,17,0,0,0-.34,3.07c2.88-1.46,4.26-3.74,5.79-5.89,1.25-1.76,2.48-3.54,3.86-5.2,1.11-1.32,2.55-2.47,4.27-1.06s.35,2.69-.47,3.89c-2.55,3.69-5.17,7.34-7.7,11-1.1,1.61-2.77,2.89-3.07,5.42,3.1-.23,5.3-1.87,7.53-3.55,1.19-.9,2.45-3.11,4.08-1.06,1.52,1.9-.83,2.82-1.79,4a7.39,7.39,0,0,1-1.82,1.69c-10.05,6.07-14.06,16.63-19.94,26-9.57,15.17-19,30.57-31.66,43.51-2.44,2.49-4.74,5.1-7.11,7.66-1-.78-1.59-2.82-3.36-.71s-4.15,3.18-5.86,5.31C391.68,411.5,393.64,410.1,395.27,412Z" transform="translate(-138.11 -299.06)"/><path class="cls-1" d="M221,483.17c-3.2-5.07-3.59-11-4.8-16.61-1.66-7.72-5.56-13.32-12.92-16.54a81,81,0,0,1-11.46-6c-5.38-3.48-5.95-8.23-2.89-13.78,5-9.11,12.36-11.73,22.51-10.48s18.87,4.89,27.37,10c2.4,1.44,2.76,2.62.34,4.24-.6.46-1.19.92-1.82,1.34-2.37,1.86-3.25,4.56-3.77,7.3-1.61,8.4-3.59,16.71-5.52,25-.7,2.11-1.17,4.29-1.7,6.45a45.56,45.56,0,0,1-1.51,5C223.82,480.65,223.54,483,221,483.17Z" transform="translate(-138.11 -299.06)"/><path class="cls-2" d="M254.93,401c0-.5.07-1,.06-1.49-.17-8.09,1.63-15.4,9.39-19.47,8.19-4.29,16.52-3.21,24.29,1.18s10.24,13.26,7.25,23.71c-1.28,6.43-5.24,11.33-9.3,16.14-1.32,1.57-3.41,2-5.44,2.12a61.07,61.07,0,0,1-8,0c-11.84-.78-18.78-8-19.09-19.92A3.26,3.26,0,0,1,254.93,401Z" transform="translate(-138.11 -299.06)"/><path class="cls-3" d="M148.12,318.81a40.4,40.4,0,0,0-1.36-9.87c-.31-1.21-1.59-2.9-.08-3.56,1.81-.78,3.06.87,3.64,2.53,1,2.82,1.78,5.72,2.72,8.56.78,2.35,1,4.9,2.52,7.09,2.51-.32,3.67-4.15,7-2.51a29.36,29.36,0,0,1,11.27,9.3c.8,1.12,1,2.88.1,3.79-4.94,4.9-4.27,13.47-11.44,17-1.47.73-2.32,2-4.43,1.93-3.75-.07-6.68,2.6-9.91,4.3-.25-.28-.67-.58-.62-.7,3.81-9.67-.19-17.26-6-24.71-1.72-2.2-6.06-5.47,0-8.75,1.72-.93-1.17-3.66-1.8-5.62-.49-1.53-3-3.14-.51-4.66,2.79-1.69,3.22,1.27,4.12,2.81,1.35,2.29,2.49,4.71,3.72,7.07C150,322.21,148.2,320.27,148.12,318.81Z" transform="translate(-138.11 -299.06)"/><path class="cls-1" d="M254.93,401c.55,3.61,1.82,7,2.82,10.51,1.93,6.74,6.57,9.63,13.14,10,3.63.21,7.28.13,10.93.15a5.77,5.77,0,0,0,5.34-3c2.85-4.64,5.84-9.19,8.77-13.77,2.69,3.1,2.13,9.7-1.19,12.67-.86.77-2.23,1.26-2.14,2.52.66,9.13-6.8,9.64-12.56,12-1.58-.44-2.7.8-4.06,1.14a3.48,3.48,0,0,0-2.78,2.42c-.75,3.2-1.45,6.43-5.92,5.9a4.53,4.53,0,0,1-1.8-1.24,14.47,14.47,0,0,0-7-5.89c-1.09-.39-2.73-.61-2.39-2.51.78-6.94,2.05-13.86-3.58-19.78C249,408.51,250.71,401.76,254.93,401Z" transform="translate(-138.11 -299.06)"/><path class="cls-4" d="M283.16,529.85c-.6,2.3-2.59,3.53-4,5.19-.58,1.39-1.39,2.38-3.11,1.83a17,17,0,0,1-13.7-4.39c-1.23-.43-1.23-1.5-1.31-2.53-.3-4.34.57-8.74-.62-13a6.14,6.14,0,0,1-.35-1.52c.08-2.15-.65-4.16-1.07-6.22.14-4.39-1.53-8.9.9-13.12,1.52-2.11,3.86-3,6.1-4a22.72,22.72,0,0,1,8.53-1.11,3.4,3.4,0,0,1,1.49.45c1.81,1.37,4.55,1.75,4.94,4.63.81,2.74,0,5.66.89,8.39a8.67,8.67,0,0,1,.32,1.5,37.36,37.36,0,0,1,.18,4.54c0,.49,0,1,0,1.48a13.17,13.17,0,0,0,.56,5,13.12,13.12,0,0,1,.39,2.22c0,2.33.8,4.57.74,6.91A3.87,3.87,0,0,1,283.16,529.85Z" transform="translate(-138.11 -299.06)"/><path class="cls-5" d="M259,494.68c-1.33-3.34-3-.61-4.26-.06-3.91,1.78-7.5,2-11.89-1.26,11.62-2.1,20.76-7.37,29.64-13.53,6.74-4.68,12.17-3.37,20,4-9.12-.65-16.88.82-23.48,6-.51,2.28-2.77,1.83-4.19,2.69a12.44,12.44,0,0,0-2.73,1.44c-.31.27-.64.52-1,.76C260.4,494.91,259.71,495.74,259,494.68Z" transform="translate(-138.11 -299.06)"/><path class="cls-6" d="M301.06,433.06c.95-.51.74-2.55,2.4-2,1.4.48,1,1.79,1.1,3,.55,11.89,2.06,23.44,8.66,33.91,3.05,4.84,8.43,7,11.47,11.6.36,1.49,1.47,2.85.81,4.53A1.82,1.82,0,0,1,323,484a3.68,3.68,0,0,1-2.11-2.13c-.9-1.28-1.49-2.91-3.44-2.95l-3.51-3.76c-1.34-1.58-2.41-3.37-3.68-5-2.21-3.52-4.77-6.85-6-10.89a15.83,15.83,0,0,0-1.78-4.45,27.22,27.22,0,0,1-1.91-6.77c0-.95.49-1.85.27-2.83-.37-2.38.14-4.83-.66-7.17a12.38,12.38,0,0,1,0-3.74A2.73,2.73,0,0,1,301.06,433.06Z" transform="translate(-138.11 -299.06)"/><path class="cls-7" d="M319,512.79l0-1.65c2.23-1.92,2.15-4.78,3-7.29a6.43,6.43,0,0,1,.3-2c.9-1.16.58-2.62.94-3.92,1.1-1.63.58-3.55.93-5.31a2.44,2.44,0,0,1,.83-1.08c1.5,15.85,2.7,31.7.13,47.57a2.74,2.74,0,0,1-1.85-1.41c-1.52-5.45-1.42-11.28-3.8-16.54a8.84,8.84,0,0,1-.45-2.28C318.75,516.86,319.43,514.82,319,512.79Z" transform="translate(-138.11 -299.06)"/><path class="cls-8" d="M323,544.26c-.07.8.13,2.14-.78,2.09-2.26-.12-.43-2.65-1.73-3.49-2.12,4.1-6.72,5.39-13.74,3.76a17.81,17.81,0,0,1-3.77-1.28c-1.19-.58-3.62-.18-3.15-2.26.38-1.71,2.31-3.68,4-3,3.76,1.53,8.76,0,11.33,4.6,1,1.72,2.12.58,2.49-.53,1.24-3.74,2.27-7.54,3.38-11.32,3.54,1.57,1.18,5,2.32,7.32C323.56,541.55,323,542.88,323,544.26Z" transform="translate(-138.11 -299.06)"/><path class="cls-9" d="M228.61,537.73c-1.87-3.54-3.73-7.08-4.22-11.14a44.5,44.5,0,0,1,.76-6.28c.84-1.64,1.11-4,3.91-3.2l4.43,7c.48,2,.88,3.95-.49,5.76-.88,1.15-2.42,1.45-3.32,2.59C228,533.93,230.81,536.35,228.61,537.73Z" transform="translate(-138.11 -299.06)"/><path class="cls-10" d="M241,474.93c2.28,3,4.8,5.78,6.33,9.64-2.08.16-6.53-2.66-2.74,3.84-5.18-3-8-6.5-11.4-9.19-.61-.48-1-2-.62-1.91,2.66,1,3.43-3.71,6.16-1.9C239.4,475.12,240.05,474.44,241,474.93Z" transform="translate(-138.11 -299.06)"/><path class="cls-11" d="M291.14,473.19c-.64,1.83-1,4.12-3.82,3.21s-1.72-3.19-1.22-5c.67-2.39,1.59-4.72,2.45-7.05.71-1.92,1.49-4,4.17-3.08s2.12,3,1.39,5c-.22.61-.55,1.18-.84,1.77a1.83,1.83,0,0,1-1.07.44c-1.25,0-1.53.87-1.53,1.91C290.86,471.29,291.61,472.14,291.14,473.19Z" transform="translate(-138.11 -299.06)"/><path class="cls-12" d="M270.9,474.82c-4.55,2.85-4.6,2.81-5-2.38q-.29-3.48-.74-6.94c-.31-2.38.21-3.93,3.05-3.76s3,2.23,2.7,4.28c-.2,1.36-1.67,2.64,0,4C272.44,471.6,272.33,473.21,270.9,474.82Z" transform="translate(-138.11 -299.06)"/><path class="cls-13" d="M395.27,412c-2.47-.57-4.69,1.64-7.52.52,1.69-4.5,6.87-5.67,9.15-9.6.77-1.33,1.78-.34,2.11,4C397.95,408.74,398,411.37,395.27,412Z" transform="translate(-138.11 -299.06)"/><path class="cls-14" d="M233,460.43c-3.1,8.17-3.08,17.47-8.86,24.69-1.91-1.63-.61-3.34-.11-5s1-3.35,1.53-5c.4-1.94,1.36-3.73,1.6-5.72,2.12-4.4,1.46-9.8,5-13.71a1.22,1.22,0,0,1,1.34.7A8.39,8.39,0,0,1,233,460.43Z" transform="translate(-138.11 -299.06)"/><path class="cls-15" d="M258,525.58l-18.48-18.51C244.91,513.44,253.92,516.49,258,525.58Z" transform="translate(-138.11 -299.06)"/><path class="cls-16" d="M294.94,478c-.92.08-1.77,1.25-2.71.39-.75-.69-.28-1.53.22-2.22,1.65-2.27,3.43-4.46,4.94-6.82s3.57-.91,4.66-.16c1.76,1.21-.28,2.22-1.1,2.9-2.17,1.81-2.42,4.66-4,6.78C295.88,479.57,295.74,478,294.94,478Z" transform="translate(-138.11 -299.06)"/><path class="cls-17" d="M258,459.51c4.6-3.84,10.29-4.26,13.24-9.1C272.34,459,270.35,459.22,258,459.51Z" transform="translate(-138.11 -299.06)"/><path class="cls-8" d="M281.53,534.87c2.49,2.52,2.49,2.52,15.56,4.49-3.27,3.93-4.06,3.85-17.3-1.58C279,536,280.23,535.41,281.53,534.87Z" transform="translate(-138.11 -299.06)"/><path class="cls-18" d="M256.05,431.94c3.77,2.09,8.91,2.43,10,7.89A2,2,0,0,1,264,441.3c-2.44-1.18-4.52-3-7-4.08-.78-1.16-2.23-1.37-3.23-2.23a9.14,9.14,0,0,1-1.37-3A5.16,5.16,0,0,1,256.05,431.94Z" transform="translate(-138.11 -299.06)"/><path class="cls-19" d="M322.15,540.88c-.57-2.65.34-5.51-1.1-8l-2.25-11.94a.77.77,0,0,1,1.12,0c3.67,5,3.27,11.06,4.12,16.78C324.45,539.35,324.19,540.64,322.15,540.88Z" transform="translate(-138.11 -299.06)"/><path class="cls-20" d="M244.5,468.91c.11,2.89,3.19,4.11,3.91,6.85.41,1.55.46,3.36,2.54,3.77,1.49.3,1.51,1.17.64,2s-1.85,2-2.82.44q-3.34-5.49-6.3-11.21C241.9,469.69,242.93,469.1,244.5,468.91Z" transform="translate(-138.11 -299.06)"/><path class="cls-21" d="M253.05,469c2,2.71,7.55,3.87,4,9.06a2.37,2.37,0,0,1-1.63-1.16c-.89-1.15.13-2.62-.64-3.8a5.37,5.37,0,0,1-4.75-5.27c-.29-3.09.66-4.52,3.89-2.95C254.68,466.51,254.1,467.82,253.05,469Z" transform="translate(-138.11 -299.06)"/><path class="cls-17" d="M167.35,417.86c-.62-5.88-.62-5.88,5.81-11.19C173.43,410.4,171.84,413.47,167.35,417.86Z" transform="translate(-138.11 -299.06)"/><path class="cls-22" d="M256.62,462.68l4.56.4c-1,4.62,3.34,8.68,1.38,13.92C259.05,472.79,260.7,467.06,256.62,462.68Z" transform="translate(-138.11 -299.06)"/><path class="cls-23" d="M282.12,518.55l-.07-1.47c0-.64,0-1.29,0-1.93-.08-1.47.3-3-.84-4.29l0-5.1c.95-.86.59-2.58,2-3.11,1.44,5.67.95,11.53,1.68,17.26a1.56,1.56,0,0,1-1.8.35A3.35,3.35,0,0,1,282.12,518.55Z" transform="translate(-138.11 -299.06)"/><path class="cls-24" d="M229.7,539.95a25.75,25.75,0,0,1,6.88,6.13C230,548,228.71,546.86,229.7,539.95Z" transform="translate(-138.11 -299.06)"/><path class="cls-25" d="M259,494.68l1.92-.71a1.18,1.18,0,0,1,.05,1.92c-2.62,4.5-.34,9.3-.85,13.93a1.18,1.18,0,0,1-1.34.09,9.07,9.07,0,0,1-.8-4.32l-1-1.43c.78-1-.05-2,.08-3a7.57,7.57,0,0,1,1-4.5Z" transform="translate(-138.11 -299.06)"/><path class="cls-26" d="M282.89,471.85c.48,2.54-1.32,2.11-2.72,2a2.14,2.14,0,0,1-2.07-2.72c.47-3.19.43-6.49,1.74-9.53,1.4.8,1.37,2.33,1.83,3.6.62,1.82-.22,3.8.58,5.61A10.8,10.8,0,0,0,282.89,471.85Z" transform="translate(-138.11 -299.06)"/><path class="cls-27" d="M246.43,504.82c-5.72-1-9.57-4.75-13.3-8.74Z" transform="translate(-138.11 -299.06)"/><path class="cls-28" d="M280,460.91c.27-2.33,2-2.35,3.61-2s1.67,1.84,1.6,3.13c-.14,2.4.26,4.89-1.05,7.12-1.56-.85-1.38-2.84-2.56-3.94C280.65,463.92,281.48,462,280,460.91Z" transform="translate(-138.11 -299.06)"/><path class="cls-29" d="M229.07,517.11c-2,.18-1.88,2.36-3,3.34-.4.85-.68,1.86-2,1.59-.44-3.52-.63-6.94,3.56-8.63A4.93,4.93,0,0,1,229.07,517.11Z" transform="translate(-138.11 -299.06)"/><path class="cls-30" d="M273,467.89c.26-2,.52-3.92.79-5.88.15-1.06.6-2.07,1.8-1.88s1.22,1.43,1.11,2.4c-.21,1.8-.56,3.59-.85,5.39a2.5,2.5,0,0,1-1.11.66A1.91,1.91,0,0,1,273,467.89Z" transform="translate(-138.11 -299.06)"/><path class="cls-31" d="M313.69,483.74c2.39,3,4.23,6.23,4.05,10.79C314.85,490.92,314.45,489.91,313.69,483.74Z" transform="translate(-138.11 -299.06)"/><path class="cls-32" d="M267,440.8c4.75.64,3.94-4,5.77-6.1.7,0,.87.55,1.17,1,.7,2.9-1.2,5-2.27,7.36C269.88,442.8,266.73,445.35,267,440.8Z" transform="translate(-138.11 -299.06)"/><path class="cls-33" d="M224.87,479.88l-.71,5.23-.13,2.45c-.45.84-.79,1.82-2.05,1.66-1.05-1.9-.87-4-1-6l2.8-4.54C224.49,478.75,224.54,479.43,224.87,479.88Z" transform="translate(-138.11 -299.06)"/><path class="cls-34" d="M305,459.09c.8,4.25,4.52,6.89,5.93,10.81a1.24,1.24,0,0,1-1.05,1.13,29.44,29.44,0,0,1-6-10.7,1.82,1.82,0,0,1-.08-1.49A.73.73,0,0,1,305,459.09Z" transform="translate(-138.11 -299.06)"/><path class="cls-35" d="M237.07,433.95l2.07,0c-2.3,4.37-1.59,9.39-3,14-1.52-1-1.58-2.71-2.05-4.22C234,440.1,234.68,436.76,237.07,433.95Z" transform="translate(-138.11 -299.06)"/><path class="cls-36" d="M283.16,502.65c-.46,1.18.23,3.11-2,3.11a4.68,4.68,0,0,1-.26-1c-.69-2.84-.28-5.71-.25-8.57a.94.94,0,0,1,1.43-.37C284,497.86,282.81,500.38,283.16,502.65Z" transform="translate(-138.11 -299.06)"/><path class="cls-37" d="M269,447c2.48-1,4.34-2.86,6.6-4.93C274.26,448.27,273.77,448.61,269,447Z" transform="translate(-138.11 -299.06)"/><path class="cls-38" d="M290.22,497.83c3.94,1.46,4.44,4.88,4.76,8.43Z" transform="translate(-138.11 -299.06)"/><path class="cls-39" d="M272.83,546.43c-3.92.61-7.43-.5-10.82-2.16A23.5,23.5,0,0,1,272.83,546.43Z" transform="translate(-138.11 -299.06)"/><path class="cls-40" d="M304.07,458.87l-.18,1.45a26.85,26.85,0,0,1-3.82-12.45q.47-.69.9,0c1.6,2,1.18,4.6,2.08,6.8C303.51,456.07,305.09,457.15,304.07,458.87Z" transform="translate(-138.11 -299.06)"/><path class="cls-41" d="M163.46,412c-2.72-2.55-3.64-6.9-7.83-8C160.82,404.12,162.19,408,163.46,412Z" transform="translate(-138.11 -299.06)"/><path class="cls-42" d="M257.1,436.68a16.36,16.36,0,0,1,6.94,4.1c1.14.75,2.08,1.55.89,3L257,437.9A.69.69,0,0,1,257.1,436.68Z" transform="translate(-138.11 -299.06)"/><path class="cls-43" d="M249.06,544c-6.12,2.36-6.12,2.36-7.18-.91C244.46,542.36,246.53,544.67,249.06,544Z" transform="translate(-138.11 -299.06)"/><path class="cls-44" d="M263.88,491.73l5.12-1.95,1.11.27c1.5,1.26,4.32-1.16,5.19,1.86L266,493l-.64-.13A2,2,0,0,1,263.88,491.73Z" transform="translate(-138.11 -299.06)"/><path class="cls-45" d="M322.88,503.89c-.82,2.66-.59,5.87-3.83,7.25l2.84-10.41C323.06,501.52,322,503,322.88,503.89Z" transform="translate(-138.11 -299.06)"/><path class="cls-46" d="M233,455.88l-.81,0a10.94,10.94,0,0,1,2.57-11.27c1.31,1,.55,2.42.76,3.63a37.75,37.75,0,0,1-.41,5l-.05.37C234.13,454.2,235.08,456.44,233,455.88Z" transform="translate(-138.11 -299.06)"/><path class="cls-47" d="M282,495.86l-.42.11-.43,0q-1,.74-1.18-.51l-4.22-3.47.36-.32.42.25C280.8,489.89,281.87,492.26,282,495.86Z" transform="translate(-138.11 -299.06)"/><path class="cls-48" d="M301,447.9l-.9,0-.19-1.65c-.74-2.33-.2-4.73-.37-7.09.68-1.69-1.56-4.2,1.45-5.25l.06,3.49c1.14,2.78-.2,5.8.87,8.59Z" transform="translate(-138.11 -299.06)"/><path class="cls-49" d="M264.92,443.77l-.89-3,2-.95.92,1c.27,3.43,3.1,1.53,4.68,2.24C269.57,444.65,267.24,444.15,264.92,443.77Z" transform="translate(-138.11 -299.06)"/><path class="cls-50" d="M232.06,529.84c1.55-1.64,1-3.81,1.44-5.73,2.76,2.3,1.76,4.84.47,7.4C233.27,531,232.38,530.76,232.06,529.84Z" transform="translate(-138.11 -299.06)"/><path class="cls-51" d="M273,467.89l1.82,0c1.11,1.9.72,3.87.26,5.84l-1.05.24c-2,.72-2.72-.11-2.31-2,.29-1.39.69-2.76,1-4.14Z" transform="translate(-138.11 -299.06)"/><path class="cls-52" d="M282,464.89c2.79.38,1.63,2.73,2.13,4.26.32,1.24-.85,1.79-1.24,2.7l-1.1-.05c-1.09-1.77-.08-3.65-.28-5.46A1.69,1.69,0,0,1,282,464.89Z" transform="translate(-138.11 -299.06)"/><path class="cls-53" d="M170.23,404.44c-.26,2.65-1.76,3.61-4.65,3.32C166.53,405.46,168.57,405.2,170.23,404.44Z" transform="translate(-138.11 -299.06)"/><path class="cls-54" d="M225.2,493.87l1.64,8.32a5.53,5.53,0,0,1-2.91-5.3C224.77,496.06,223.75,494.45,225.2,493.87Z" transform="translate(-138.11 -299.06)"/><path class="cls-55" d="M225.2,493.87c-.43,1,0,2.37-1.27,3a20.08,20.08,0,0,1-2-7.67l2.05-1.65q0,1.12,0,2.24c-.61,1.61.49,2.79,1.05,4.1Z" transform="translate(-138.11 -299.06)"/><path class="cls-56" d="M322.15,540.88l1.89-3.21,1.09,1.44c-.22,1.92-.14,4-2.14,5.15C321.74,543.38,321.9,542.14,322.15,540.88Z" transform="translate(-138.11 -299.06)"/><path class="cls-57" d="M259.84,519.13l-1.73-8.27a1.58,1.58,0,0,1,1.38-.34c2.13,1.34.1,3.86,1.53,5.4l0-.08a2.05,2.05,0,0,1,.36,2A2,2,0,0,1,259.84,519.13Z" transform="translate(-138.11 -299.06)"/><path class="cls-58" d="M283.16,529.85l0-3.93a4.82,4.82,0,0,1,.8-1.35.75.75,0,0,1,.91.27,1.72,1.72,0,0,1,.16,1,12.42,12.42,0,0,1,.13,6.84C282.52,533.1,284.85,530,283.16,529.85Z" transform="translate(-138.11 -299.06)"/><path class="cls-59" d="M232.06,529.84A1.86,1.86,0,0,1,234,531.5c-1.37.75-3.17.75-4.07,2.33-1.71.18-1.39-.83-1.08-1.84C229.42,530.54,230.86,530.37,232.06,529.84Z" transform="translate(-138.11 -299.06)"/><path class="cls-60" d="M291.14,473.19,289,470.84c1.13-.82.88-2.92,2.8-3l1.47.17C293,469.91,292.61,471.77,291.14,473.19Z" transform="translate(-138.11 -299.06)"/><path class="cls-61" d="M309.92,471,311,469.9c1.42,1.5,3,2.94,3,5.23C311.65,474.7,310.78,472.87,309.92,471Z" transform="translate(-138.11 -299.06)"/><path class="cls-62" d="M272.78,467.85c1.59,1.81-2.57,4.83,1.29,6.17-.86,1-2,.9-3.17.81l0-4.83Z" transform="translate(-138.11 -299.06)"/><path class="cls-41" d="M165,403.5c1.15-2.09,3.17-1.84,4.94-2.35A6,6,0,0,1,165,403.5Z" transform="translate(-138.11 -299.06)"/><path class="cls-63" d="M281.53,534.87a3.2,3.2,0,0,0-1.74,2.92c-1.33,0-2.86.8-3.76-.92l3.11-1.83Z" transform="translate(-138.11 -299.06)"/><path class="cls-64" d="M253.05,469a6.09,6.09,0,0,1,.91-4.12,2.38,2.38,0,0,1,1.81,2.85C255.5,469.24,254,468.65,253.05,469Z" transform="translate(-138.11 -299.06)"/><path class="cls-65" d="M262,531l.37,1.47c0,1,1.59,2.64,0,2.83-1.74.21-2.67-1.53-2.16-3.49a2.6,2.6,0,0,1,.95-1.32A.7.7,0,0,1,262,531Z" transform="translate(-138.11 -299.06)"/><path class="cls-66" d="M282,464.89l0,1.1q-.45.61-.84,0c-1.62-1.1-.82-2.91-1.28-4.35a.66.66,0,0,1,.13-.69C282.68,461.2,281.78,463.33,282,464.89Z" transform="translate(-138.11 -299.06)"/><path class="cls-67" d="M301,433.88c-1.61,1.4-.73,3.31-1,5q-.43.72-.87,0c.23-2.94-1.73-6.11.93-8.79,0,1.12-.22,2.3,1,3A.8.8,0,0,1,301,433.88Z" transform="translate(-138.11 -299.06)"/><path class="cls-68" d="M324.25,497.79l-1,4.33c-1.3-.76-.27-2.26-1-3.19l.8-4a.89.89,0,0,1,1.26,0A4.54,4.54,0,0,1,324.25,497.79Z" transform="translate(-138.11 -299.06)"/><path class="cls-69" d="M261.09,530.7l-.89,1.14-.12-9a.85.85,0,0,1,1.33.42C261.37,525.76,261.89,528.26,261.09,530.7Z" transform="translate(-138.11 -299.06)"/><path class="cls-70" d="M276.57,491.87l-.4,0-.38.11-.26.06-.24-.1c-1.31-1.78-3.8-.28-5.18-1.86C272.26,490.65,275.45,487.58,276.57,491.87Z" transform="translate(-138.11 -299.06)"/><path class="cls-71" d="M323,484a2.57,2.57,0,0,1,2.49.11c.39,2,.95,4-.48,5.81-1.37-1,.46-2.95-1.19-3.84Z" transform="translate(-138.11 -299.06)"/><path class="cls-72" d="M227.37,503.17c1,1.94.73,3.32.43,5.71C226.82,506.52,225.46,505.16,227.37,503.17Z" transform="translate(-138.11 -299.06)"/><path class="cls-73" d="M319.93,520.88l-1.12,0c-1.29-1.93-.9-4-.65-6.13,2.57.64.48,3.27,1.88,4.41Z" transform="translate(-138.11 -299.06)"/><path class="cls-74" d="M259,510.89l-.87,0c0-1.76-2.18-3.47-.13-5.28,1,1.26,1,2.81,1.17,4.3q.41.42.2.73T259,510.89Z" transform="translate(-138.11 -299.06)"/><path class="cls-75" d="M228.83,532l1.08,1.84a16.73,16.73,0,0,1,.18,3.93c-.26,1.42-1,.78-1.48,0C229.12,535.83,227.29,533.84,228.83,532Z" transform="translate(-138.11 -299.06)"/><path class="cls-76" d="M241,474.93c-.81-.07-1.07,2.54-2.28.48-.41-1-1.67-2.28-.2-2.84S240.4,473.8,241,474.93Z" transform="translate(-138.11 -299.06)"/><path class="cls-77" d="M256.2,476.89l.89,1.19c-.59,2.07-1.74,1.66-3,.68a2.26,2.26,0,0,1-.11-2.94C255.32,474.89,255.17,477.15,256.2,476.89Z" transform="translate(-138.11 -299.06)"/><path class="cls-78" d="M257.1,436.68l-.1,1.22c-1.66-.57-3.31-1.16-4.08-3a.61.61,0,0,1,1,0C255.35,434.84,256.88,434.58,257.1,436.68Z" transform="translate(-138.11 -299.06)"/><path class="cls-79" d="M276,432.87c1.2-1.07,2.3-2.66,4-.75-1.2,1.08-2.44,2.06-4.23,1.63q-.35-.38-.15-.64T276,432.87Z" transform="translate(-138.11 -299.06)"/><path class="cls-80" d="M299.1,438.87H300q0,3.68-.08,7.35C298.78,443.86,298.89,441.37,299.1,438.87Z" transform="translate(-138.11 -299.06)"/><path class="cls-81" d="M320,519.18c-1.54-1.08-.47-3.27-1.88-4.41l.84-2C320.94,514.66,319.83,517,320,519.18Z" transform="translate(-138.11 -299.06)"/><path class="cls-82" d="M233,455.88l2.05-2.25a11,11,0,0,1-2,6.79Q233,458.16,233,455.88Z" transform="translate(-138.11 -299.06)"/><path class="cls-83" d="M284.85,524.84h-.69c-.42-1.62-2.53-2.93-.86-4.91h1.54A8.81,8.81,0,0,1,284.85,524.84Z" transform="translate(-138.11 -299.06)"/><path class="cls-84" d="M257.81,501.84c.21,1,.2,1.82-.86,2.31a7.4,7.4,0,0,1,0-6.46C258.09,498.89,257,500.57,257.81,501.84Z" transform="translate(-138.11 -299.06)"/><path class="cls-85" d="M224,522l2-1.58-1.64,6.14A8.81,8.81,0,0,1,224,522Z" transform="translate(-138.11 -299.06)"/><path class="cls-86" d="M285.14,532.64l-.13-6.84C287,528,286.79,530.32,285.14,532.64Z" transform="translate(-138.11 -299.06)"/><path class="cls-87" d="M148.12,318.81a4.63,4.63,0,0,1,.72,4.51c-.73,1.92-1.44.71-1.81-.47C148.56,321.81,147.57,320.1,148.12,318.81Z" transform="translate(-138.11 -299.06)"/><path class="cls-88" d="M324,494.76l-1,.16a14.71,14.71,0,0,1,.89-6.31c.91.48.41,1.56.93,2.21a1.93,1.93,0,0,1,.2.72l-.05.35C324,492.65,325,494,324,494.76Z" transform="translate(-138.11 -299.06)"/><path class="cls-89" d="M324.8,490.82l-.93-2.21,0-2.56c2.59.6.44,2.67,1.19,3.84A1.86,1.86,0,0,1,324.8,490.82Z" transform="translate(-138.11 -299.06)"/><path class="cls-90" d="M276,432.87q-.11.44-.18.88l-1.87,1.94-1.17-1C273,432.54,274.66,433,276,432.87Z" transform="translate(-138.11 -299.06)"/><path class="cls-91" d="M253.92,434.92h-1c-.77-.88-2.36-1.62-.55-3Z" transform="translate(-138.11 -299.06)"/><path class="cls-92" d="M254.78,476c-1,.74-.67,1.81-.7,2.79-1.39-1.53-2.1-3.09-.19-4.75C254.62,474.47,255.8,474.72,254.78,476Z" transform="translate(-138.11 -299.06)"/><path class="cls-93" d="M317.46,478.9c2.46-.55,3.34.74,3.44,3Z" transform="translate(-138.11 -299.06)"/><path class="cls-94" d="M254.78,476l-.89-2,.94-.89c1.88.74.95,2.5,1.38,3.76C254.61,478.33,255.14,476.46,254.78,476Z" transform="translate(-138.11 -299.06)"/><path class="cls-95" d="M275.12,473.77q-.13-2.92-.26-5.84h1C276.12,469.93,277.17,472.06,275.12,473.77Z" transform="translate(-138.11 -299.06)"/><path class="cls-96" d="M294.94,478c1.35-1.26,1.18,1,2,.88-.08,1-.42,2.19-1.6,1.74C294.38,480.24,294.93,478.93,294.94,478Z" transform="translate(-138.11 -299.06)"/><path class="cls-97" d="M235.08,453.26a6.1,6.1,0,0,1-.12-4.36.6.6,0,0,1,1.06-.08C236.15,450.4,236.2,452,235.08,453.26Z" transform="translate(-138.11 -299.06)"/><path class="cls-98" d="M257.81,501.84c-1.22-1.19-.65-2.75-.88-4.15l1.11-1C258.71,498.44,258,500.13,257.81,501.84Z" transform="translate(-138.11 -299.06)"/><path class="cls-99" d="M260.85,522.87h-.77l-.24-3.75,1-1.22A4.37,4.37,0,0,1,260.85,522.87Z" transform="translate(-138.11 -299.06)"/><path class="cls-100" d="M225.07,493.9c-1.06-1.18-2.69-2.22-1.05-4.1C224.61,491.11,225.47,492.34,225.07,493.9Z" transform="translate(-138.11 -299.06)"/><path class="cls-101" d="M322.19,498.93l1,3.19-.33,1.77c-1.1-.81-.7-2.09-1-3.16Z" transform="translate(-138.11 -299.06)"/><path class="cls-102" d="M236,448.82l-1.06.08q0-2.14,0-4.28l.1-.67c1.4,1,.65,2.64,1.09,3.93A1,1,0,0,1,236,448.82Z" transform="translate(-138.11 -299.06)"/><path class="cls-103" d="M383.36,403.69c-.67,2.67-3.54,2-5.36,3-.78.4-1.88-.19-1.52-1.16.87-2.33,3.21-3.23,5.23-4.13C382.89,400.83,382.87,402.55,383.36,403.69Z" transform="translate(-138.11 -299.06)"/><path class="cls-103" d="M424.9,353.21c-.26,3.46-2,4.85-4.52,5.49-.81.21-2-.6-1.83-1.26C419.38,354.48,422.27,354.54,424.9,353.21Z" transform="translate(-138.11 -299.06)"/><path class="cls-104" d="M329.35,432.36c-4.2,2.3-7.35,1.4-11.49,1.27C321.77,431,324.93,432,329.35,432.36Z" transform="translate(-138.11 -299.06)"/><path class="cls-105" d="M308.77,429.47a2.14,2.14,0,0,1,2.18-2.14c.2,0,.72.82.62,1C311,429.45,310.19,430.22,308.77,429.47Z" transform="translate(-138.11 -299.06)"/><path class="cls-106" d="M432.84,322.63c-.13,1.11-.83,1.36-1.71,1.23-.42-.06-1-.17-.73-.86s.47-1.63,1.42-1.68S432.67,322.11,432.84,322.63Z" transform="translate(-138.11 -299.06)"/><path class="cls-107" d="M235.06,444a.66.66,0,0,0-.1.67l-2.8,11.29c-1.37,4.66-2.17,9.51-4.31,13.93-1.94-.07-1.18-1.32-1-2.31,2-9.31,4-18.63,6.13-27.91.54-2.35,1.27-4.85,4.1-5.68Z" transform="translate(-138.11 -299.06)"/><path class="cls-108" d="M226.84,467.54l1,2.31c-.43,1.76-.59,3.61-1.83,5.08a2.32,2.32,0,0,1-.94-1A18.12,18.12,0,0,1,226.84,467.54Z" transform="translate(-138.11 -299.06)"/><path class="cls-109" d="M232.18,429.19c1.83,1.2,2.52,2.4,2.33,4,0,.24-1,.67-1.16.54C232.08,432.72,232.21,431.28,232.18,429.19Z" transform="translate(-138.11 -299.06)"/><path class="cls-110" d="M225.08,473.92l.94,1-1.15,5-1.08-1.25Z" transform="translate(-138.11 -299.06)"/><path class="cls-111" d="M167.8,331.29a2.29,2.29,0,0,1-3,1.68c-2.19-.56-4-1.83-4.31-4.2a1.77,1.77,0,0,1,2.42-1.73C165.18,327.78,166.29,329.91,167.8,331.29Z" transform="translate(-138.11 -299.06)"/><path class="cls-112" d="M268.86,525c-1.15-3.13-.93-6.39-.94-9.63-.38-1.63-1-3.29.45-4.75a2.29,2.29,0,0,1,1.63,0c1.14,1.05,1.15,2.4,1,3.8-.95,2.74.87,5.55-.21,8.29A3.55,3.55,0,0,1,268.86,525Z" transform="translate(-138.11 -299.06)"/><path class="cls-113" d="M273.85,509.79l0,3.14c-.84.83.73,3.83-2.37,2.62-.2-4-3-7.77-1.31-12a2,2,0,0,1,1.22-1,2,2,0,0,1,1.86,1.25C273.87,505.75,273,507.85,273.85,509.79Z" transform="translate(-138.11 -299.06)"/><path class="cls-114" d="M276.11,523.63c1.68,7.51,1.1,8.43-4.54,8.79-2.32.15-2.59-.74-2.39-2.53a3.68,3.68,0,0,1,1-.79,6.1,6.1,0,0,1,1.87-.33,7.87,7.87,0,0,0,1.78-.24C275.55,527.33,274.16,524.7,276.11,523.63Z" transform="translate(-138.11 -299.06)"/><path class="cls-115" d="M272.16,515.89l1.72-3a2.17,2.17,0,0,1,.28.79c1.09,1.27.62,2.94,1.11,4.36q.33.56.64,1.13a3.61,3.61,0,0,0-.75,3.5l-.17.76c-.62,1.31-1.27,2.52-2.75.76C271.9,521.46,270.08,518.7,272.16,515.89Z" transform="translate(-138.11 -299.06)"/><path class="cls-116" d="M260.85,522.87l0-5,.19-2.06c2.17,4.94.78,10.11,1,15.18a2,2,0,0,0-.87-.33Z" transform="translate(-138.11 -299.06)"/><path class="cls-117" d="M266.12,500.87l0-2.7c.92-1.37,2.3-.54,3.47-.72a2.25,2.25,0,0,1,1.78,2.11,2,2,0,0,1-2,1.64c-1.91-2.18-.41,2.32-1.9,1C266.6,502.12,266.44,501.41,266.12,500.87Z" transform="translate(-138.11 -299.06)"/><path class="cls-118" d="M270,510.86l-.49.07-.49-.05a3.45,3.45,0,0,1-1.92-2.27l-.2-1.68a1,1,0,0,1,.3-1.43,2.64,2.64,0,0,1,2.42,0C271,507.18,270.73,509,270,510.86Z" transform="translate(-138.11 -299.06)"/><path class="cls-119" d="M272.93,503.92l-1.09-1.09c-1.08-1.27-.48-2.58-.12-3.89a1.06,1.06,0,0,1,1.45-.15c1.06,1.6.84,3.38.74,5.15C273.58,504.38,273.25,504.4,272.93,503.92Z" transform="translate(-138.11 -299.06)"/><path class="cls-120" d="M273.17,498.78l-1,.11a5.89,5.89,0,0,1-2-.83l-4,.11C269.92,495.58,271.82,495.75,273.17,498.78Z" transform="translate(-138.11 -299.06)"/><path class="cls-121" d="M276.11,523.63c-.05,1.76-.13,3.53-.15,5.29s-1,1.25-2,1a3.94,3.94,0,0,1-.33-2.8c.3-1.4.79-2.75,1.18-4.12l.31-.26Z" transform="translate(-138.11 -299.06)"/><path class="cls-122" d="M280,495.42l1.18.51-.32,8.87C279.63,501.76,279.95,498.58,280,495.42Z" transform="translate(-138.11 -299.06)"/><path class="cls-123" d="M283.3,519.92c-.61,1.8,1.13,3.18.86,4.91l-1,1.08-1-7.36Z" transform="translate(-138.11 -299.06)"/><path class="cls-124" d="M259,510.89l.17-1q.49,0,1-.06c1.24,1.9,1.08,4,.9,6.11C259.33,514.65,260.86,512.08,259,510.89Z" transform="translate(-138.11 -299.06)"/><path class="cls-125" d="M270.25,529.83l-1.06.07-.33-4.92.92-2.05a2.83,2.83,0,0,1,1.38,2A6,6,0,0,1,270.25,529.83Z" transform="translate(-138.11 -299.06)"/><path class="cls-126" d="M261,495.88l0-1.92.06-.05c1.46-1,2.92-2,4.84-1.24l.16.36Z" transform="translate(-138.11 -299.06)"/><path class="cls-127" d="M267.08,508.6a3.13,3.13,0,0,1,1.92,2.27c-1.57,1.19-.75,3-1.09,4.46C266.75,513.2,267,510.89,267.08,508.6Z" transform="translate(-138.11 -299.06)"/><path class="cls-128" d="M281.17,510.86c2.66.91,1.35,3.14,1.62,4.85-2.4-.43-.6-2.65-1.57-3.7Z" transform="translate(-138.11 -299.06)"/><path class="cls-129" d="M281.21,512l1.57,3.7a1.09,1.09,0,0,1-.73,1.37C280.71,515.57,281,513.78,281.21,512Z" transform="translate(-138.11 -299.06)"/><path class="cls-130" d="M272.93,503.92a7.83,7.83,0,0,1,1,0l-.07,5.86Z" transform="translate(-138.11 -299.06)"/><path class="cls-131" d="M267.19,505.89l-.31,1c-1.21-1.9-.86-4-.76-6l1,1.05C268.29,503.23,268.09,504.55,267.19,505.89Z" transform="translate(-138.11 -299.06)"/><path class="cls-132" d="M275.91,519.21a2.36,2.36,0,0,1-.85-.45c-.94-1.55-.65-3.14-.19-4.74C276.48,515.5,275.84,517.43,275.91,519.21Z" transform="translate(-138.11 -299.06)"/><path class="cls-133" d="M274.87,514l.19,4.74c-1.38-1.49-.75-3.33-.9-5A.92.92,0,0,1,274.87,514Z" transform="translate(-138.11 -299.06)"/><path class="cls-83" d="M265.82,492.67,261,493.91a2.87,2.87,0,0,1,2.89-2.18Z" transform="translate(-138.11 -299.06)"/><path class="cls-134" d="M301.89,446c-1.83-2.71-.74-5.71-.87-8.58C302.3,440.14,301.92,443.07,301.89,446Z" transform="translate(-138.11 -299.06)"/><path class="cls-135" d="M304.07,458.87l-1-4.16c1.78,1,2.13,2.55,2,4.38A3.45,3.45,0,0,0,304.07,458.87Z" transform="translate(-138.11 -299.06)"/><path class="cls-136" d="M324,494.76c.4-.94-.26-2.24,1-2.87-.06,2,.69,4.08-.7,5.91Z" transform="translate(-138.11 -299.06)"/><path class="cls-137" d="M291.81,467.83c-.94,1-1.13,2.69-2.8,3,.39-1.35.42-3,1.25-4C291.67,465.17,291.82,466.64,291.81,467.83Z" transform="translate(-138.11 -299.06)"/><path class="cls-138" d="M269,465.15c-.29.51-.44,1.16-.73,1.22-.82.19-1.1-.49-1-1.14,0-.34.5-.64.77-1Z" transform="translate(-138.11 -299.06)"/><path class="cls-139" d="M268.47,470.14c.71,1.64.75,2.71.13,3.9C267.62,472.88,267.87,471.74,268.47,470.14Z" transform="translate(-138.11 -299.06)"/><path class="cls-140" d="M281.12,466a2,2,0,0,1,.84,0l-.17,5.81C278.77,470.17,281.41,467.89,281.12,466Z" transform="translate(-138.11 -299.06)"/><path class="cls-141" d="M275,527.9l-1,2-2.3-.09c-1.07-1.64-.45-3.65-1.16-5.37a68.14,68.14,0,0,0-.55-9.58v-4c-.26-1.67.61-3.57-1-5a3.77,3.77,0,0,1,.13-4.91l1.85-1c.85.88.6,1.85.25,2.83-1.17,4.47,1.25,8.67,1,13.08l1.12,9C274,525.8,274,527.14,275,527.9Z" transform="translate(-138.11 -299.06)"/><path class="cls-142" d="M270,514.85c1.82,3.2.78,6.68.94,10q-.43.49-.81,0l-.35-1.92C270.8,520.26,268,517.49,270,514.85Z" transform="translate(-138.11 -299.06)"/><path class="cls-143" d="M271.18,502.82l-.25-2.83-.81-1.92a1.6,1.6,0,0,1,2,.83l-.31,3.93h-.33Z" transform="translate(-138.11 -299.06)"/><path class="cls-144" d="M270.13,524.84q.4,0,.81,0c1.69,1.41.72,3.25.77,4.92l-1.46,0Q270.19,527.33,270.13,524.84Z" transform="translate(-138.11 -299.06)"/><path class="cls-74" d="M275,527.9c-2.47.1-2-1.49-1.71-3l1.57-1.93Z" transform="translate(-138.11 -299.06)"/><path class="cls-145" d="M269.09,501,269,505.9h-1.76l-.06-4,1.53-2.19Z" transform="translate(-138.11 -299.06)"/></svg>